%TF.GenerationSoftware,KiCad,Pcbnew,9.0.7*%
%TF.CreationDate,2026-04-03T17:51:38+05:00*%
%TF.ProjectId,Esp 01,45737020-3031-42e6-9b69-6361645f7063,rev?*%
%TF.SameCoordinates,Original*%
%TF.FileFunction,Soldermask,Top*%
%TF.FilePolarity,Negative*%
%FSLAX46Y46*%
G04 Gerber Fmt 4.6, Leading zero omitted, Abs format (unit mm)*
G04 Created by KiCad (PCBNEW 9.0.7) date 2026-04-03 17:51:38*
%MOMM*%
%LPD*%
G01*
G04 APERTURE LIST*
G04 Aperture macros list*
%AMRoundRect*
0 Rectangle with rounded corners*
0 $1 Rounding radius*
0 $2 $3 $4 $5 $6 $7 $8 $9 X,Y pos of 4 corners*
0 Add a 4 corners polygon primitive as box body*
4,1,4,$2,$3,$4,$5,$6,$7,$8,$9,$2,$3,0*
0 Add four circle primitives for the rounded corners*
1,1,$1+$1,$2,$3*
1,1,$1+$1,$4,$5*
1,1,$1+$1,$6,$7*
1,1,$1+$1,$8,$9*
0 Add four rect primitives between the rounded corners*
20,1,$1+$1,$2,$3,$4,$5,0*
20,1,$1+$1,$4,$5,$6,$7,0*
20,1,$1+$1,$6,$7,$8,$9,0*
20,1,$1+$1,$8,$9,$2,$3,0*%
G04 Aperture macros list end*
%ADD10RoundRect,0.218750X-0.256250X0.218750X-0.256250X-0.218750X0.256250X-0.218750X0.256250X0.218750X0*%
%ADD11RoundRect,0.200000X0.200000X0.275000X-0.200000X0.275000X-0.200000X-0.275000X0.200000X-0.275000X0*%
%ADD12RoundRect,0.140000X-0.140000X-0.170000X0.140000X-0.170000X0.140000X0.170000X-0.140000X0.170000X0*%
%ADD13RoundRect,0.200000X0.275000X-0.200000X0.275000X0.200000X-0.275000X0.200000X-0.275000X-0.200000X0*%
%ADD14RoundRect,0.147500X-0.172500X0.147500X-0.172500X-0.147500X0.172500X-0.147500X0.172500X0.147500X0*%
%ADD15RoundRect,0.140000X0.170000X-0.140000X0.170000X0.140000X-0.170000X0.140000X-0.170000X-0.140000X0*%
%ADD16RoundRect,0.200000X-0.275000X0.200000X-0.275000X-0.200000X0.275000X-0.200000X0.275000X0.200000X0*%
%ADD17RoundRect,0.250000X-0.350000X0.450000X-0.350000X-0.450000X0.350000X-0.450000X0.350000X0.450000X0*%
%ADD18RoundRect,0.140000X-0.170000X0.140000X-0.170000X-0.140000X0.170000X-0.140000X0.170000X0.140000X0*%
%ADD19RoundRect,0.147500X-0.147500X-0.172500X0.147500X-0.172500X0.147500X0.172500X-0.147500X0.172500X0*%
%ADD20RoundRect,0.200000X-0.200000X-0.275000X0.200000X-0.275000X0.200000X0.275000X-0.200000X0.275000X0*%
%ADD21RoundRect,0.218750X0.256250X-0.218750X0.256250X0.218750X-0.256250X0.218750X-0.256250X-0.218750X0*%
%ADD22RoundRect,0.375000X-0.625000X-0.375000X0.625000X-0.375000X0.625000X0.375000X-0.625000X0.375000X0*%
%ADD23RoundRect,0.500000X-0.500000X-1.400000X0.500000X-1.400000X0.500000X1.400000X-0.500000X1.400000X0*%
%ADD24RoundRect,0.062500X-0.375000X-0.062500X0.375000X-0.062500X0.375000X0.062500X-0.375000X0.062500X0*%
%ADD25RoundRect,0.062500X-0.062500X-0.375000X0.062500X-0.375000X0.062500X0.375000X-0.062500X0.375000X0*%
%ADD26R,3.300000X3.300000*%
%ADD27RoundRect,0.150000X0.825000X0.150000X-0.825000X0.150000X-0.825000X-0.150000X0.825000X-0.150000X0*%
%ADD28RoundRect,0.140000X0.140000X0.170000X-0.140000X0.170000X-0.140000X-0.170000X0.140000X-0.170000X0*%
%ADD29R,1.700000X1.700000*%
%ADD30C,1.700000*%
G04 APERTURE END LIST*
D10*
%TO.C,D2*%
X63115000Y-31232500D03*
X63115000Y-32807500D03*
%TD*%
D11*
%TO.C,R3*%
X57940000Y-20520000D03*
X56290000Y-20520000D03*
%TD*%
D12*
%TO.C,C2*%
X43040000Y-36000000D03*
X44000000Y-36000000D03*
%TD*%
D13*
%TO.C,R2*%
X69615000Y-21845000D03*
X69615000Y-20195000D03*
%TD*%
D14*
%TO.C,L2*%
X50615000Y-26535000D03*
X50615000Y-27505000D03*
%TD*%
D15*
%TO.C,C5*%
X49115000Y-27500000D03*
X49115000Y-26540000D03*
%TD*%
%TO.C,C4*%
X61115000Y-22757000D03*
X61115000Y-21797000D03*
%TD*%
D16*
%TO.C,R5*%
X44115000Y-28520000D03*
X44115000Y-30170000D03*
%TD*%
D12*
%TO.C,C9*%
X43655000Y-24520000D03*
X44615000Y-24520000D03*
%TD*%
D17*
%TO.C,Y1*%
X63765000Y-19920000D03*
X63765000Y-22120000D03*
X65465000Y-22120000D03*
X65465000Y-19920000D03*
%TD*%
D18*
%TO.C,C3*%
X61115000Y-19560000D03*
X61115000Y-20520000D03*
%TD*%
D12*
%TO.C,C11*%
X43655000Y-17020000D03*
X44615000Y-17020000D03*
%TD*%
D16*
%TO.C,R4*%
X55115000Y-31695000D03*
X55115000Y-33345000D03*
%TD*%
D19*
%TO.C,L1*%
X43035000Y-33000000D03*
X44005000Y-33000000D03*
%TD*%
D20*
%TO.C,R1*%
X60965000Y-27020000D03*
X62615000Y-27020000D03*
%TD*%
D21*
%TO.C,D1*%
X46827500Y-30307500D03*
X46827500Y-28732500D03*
%TD*%
D13*
%TO.C,R6*%
X68615000Y-32845000D03*
X68615000Y-31195000D03*
%TD*%
D15*
%TO.C,C1*%
X50615000Y-25000000D03*
X50615000Y-24040000D03*
%TD*%
D16*
%TO.C,R7*%
X66115000Y-31195000D03*
X66115000Y-32845000D03*
%TD*%
D22*
%TO.C,U3*%
X46965000Y-16720000D03*
X46965000Y-19020000D03*
D23*
X53265000Y-19020000D03*
D22*
X46965000Y-21320000D03*
%TD*%
D24*
%TO.C,U1*%
X53177500Y-25770000D03*
X53177500Y-26270000D03*
X53177500Y-26770000D03*
X53177500Y-27270000D03*
X53177500Y-27770000D03*
X53177500Y-28270000D03*
X53177500Y-28770000D03*
X53177500Y-29270000D03*
D25*
X53865000Y-29957500D03*
X54365000Y-29957500D03*
X54865000Y-29957500D03*
X55365000Y-29957500D03*
X55865000Y-29957500D03*
X56365000Y-29957500D03*
X56865000Y-29957500D03*
X57365000Y-29957500D03*
D24*
X58052500Y-29270000D03*
X58052500Y-28770000D03*
X58052500Y-28270000D03*
X58052500Y-27770000D03*
X58052500Y-27270000D03*
X58052500Y-26770000D03*
X58052500Y-26270000D03*
X58052500Y-25770000D03*
D25*
X57365000Y-25082500D03*
X56865000Y-25082500D03*
X56365000Y-25082500D03*
X55865000Y-25082500D03*
X55365000Y-25082500D03*
X54865000Y-25082500D03*
X54365000Y-25082500D03*
X53865000Y-25082500D03*
D26*
X55615000Y-27520000D03*
%TD*%
D12*
%TO.C,C7*%
X43655000Y-19520000D03*
X44615000Y-19520000D03*
%TD*%
D27*
%TO.C,U2*%
X71025499Y-28925000D03*
X71025499Y-27655000D03*
X71025499Y-26385000D03*
X71025499Y-25115000D03*
X66075499Y-25115000D03*
X66075499Y-26385000D03*
X66075499Y-27655000D03*
X66075499Y-28925000D03*
%TD*%
D12*
%TO.C,C6*%
X43655000Y-27020000D03*
X44615000Y-27020000D03*
%TD*%
D28*
%TO.C,C10*%
X47595000Y-24020000D03*
X46635000Y-24020000D03*
%TD*%
D12*
%TO.C,C8*%
X43635000Y-22020000D03*
X44595000Y-22020000D03*
%TD*%
D29*
%TO.C,J2*%
X58415000Y-17020000D03*
D30*
X60955000Y-17020000D03*
X63495000Y-17020000D03*
X66035000Y-17020000D03*
X68575000Y-17020000D03*
X71115000Y-17020000D03*
%TD*%
D29*
%TO.C,J1*%
X58455000Y-35520000D03*
D30*
X60995000Y-35520000D03*
X63535000Y-35520000D03*
X66075000Y-35520000D03*
X68615000Y-35520000D03*
X71155000Y-35520000D03*
%TD*%
M02*
