%TF.GenerationSoftware,KiCad,Pcbnew,9.0.7*%
%TF.CreationDate,2026-04-03T17:51:38+05:00*%
%TF.ProjectId,Esp 01,45737020-3031-42e6-9b69-6361645f7063,rev?*%
%TF.SameCoordinates,Original*%
%TF.FileFunction,Copper,L2,Bot*%
%TF.FilePolarity,Positive*%
%FSLAX46Y46*%
G04 Gerber Fmt 4.6, Leading zero omitted, Abs format (unit mm)*
G04 Created by KiCad (PCBNEW 9.0.7) date 2026-04-03 17:51:38*
%MOMM*%
%LPD*%
G01*
G04 APERTURE LIST*
%TA.AperFunction,HeatsinkPad*%
%ADD10C,0.500000*%
%TD*%
%TA.AperFunction,HeatsinkPad*%
%ADD11R,2.500000X2.500000*%
%TD*%
%TA.AperFunction,ComponentPad*%
%ADD12R,1.700000X1.700000*%
%TD*%
%TA.AperFunction,ComponentPad*%
%ADD13C,1.700000*%
%TD*%
%TA.AperFunction,ViaPad*%
%ADD14C,0.600000*%
%TD*%
%TA.AperFunction,ViaPad*%
%ADD15C,0.800000*%
%TD*%
%TA.AperFunction,Conductor*%
%ADD16C,0.200000*%
%TD*%
%TA.AperFunction,Conductor*%
%ADD17C,0.800000*%
%TD*%
G04 APERTURE END LIST*
D10*
%TO.P,U1,33,GND*%
%TO.N,/GND*%
X54615000Y-26520000D03*
X54615000Y-27520000D03*
X54615000Y-28520000D03*
X55615000Y-26520000D03*
X55615000Y-27520000D03*
D11*
X55615000Y-27520000D03*
D10*
X55615000Y-28520000D03*
X56615000Y-26520000D03*
X56615000Y-27520000D03*
X56615000Y-28520000D03*
%TD*%
D12*
%TO.P,J2,1,Pin_1*%
%TO.N,/VDD*%
X58415000Y-17020000D03*
D13*
%TO.P,J2,2,Pin_2*%
%TO.N,/GND*%
X60955000Y-17020000D03*
%TO.P,J2,3,Pin_3*%
%TO.N,/RST*%
X63495000Y-17020000D03*
%TO.P,J2,4,Pin_4*%
%TO.N,/CH_PU*%
X66035000Y-17020000D03*
%TO.P,J2,5,Pin_5*%
%TO.N,/UTXD*%
X68575000Y-17020000D03*
%TO.P,J2,6,Pin_6*%
%TO.N,/URXD*%
X71115000Y-17020000D03*
%TD*%
D12*
%TO.P,J1,1,Pin_1*%
%TO.N,/5v*%
X58455000Y-35520000D03*
D13*
%TO.P,J1,2,Pin_2*%
%TO.N,/GND*%
X60995000Y-35520000D03*
%TO.P,J1,3,Pin_3*%
%TO.N,/GPIO0*%
X63535000Y-35520000D03*
%TO.P,J1,4,Pin_4*%
%TO.N,/GPIO2*%
X66075000Y-35520000D03*
%TO.P,J1,5,Pin_5*%
%TO.N,/GPIO4*%
X68615000Y-35520000D03*
%TO.P,J1,6,Pin_6*%
%TO.N,/GPIO5*%
X71155000Y-35520000D03*
%TD*%
D14*
%TO.N,/GND*%
X61115000Y-20520000D03*
X71025499Y-25115000D03*
X57940000Y-20520000D03*
%TO.N,Net-(U1-LNA)*%
X50615000Y-25000000D03*
X49115000Y-28520000D03*
%TO.N,/ANT1*%
X41000000Y-21000000D03*
%TO.N,/VDD*%
X52713997Y-25020000D03*
X66115000Y-32845000D03*
X66050499Y-28926000D03*
X50615000Y-26535000D03*
X61615000Y-29670003D03*
X52615000Y-31020000D03*
X48990735Y-24815735D03*
%TO.N,/GPIO0*%
X59096985Y-32538015D03*
%TO.N,/GPIO2*%
X63115000Y-31232500D03*
X58115000Y-32520000D03*
%TO.N,/GPIO5*%
X72615000Y-26020000D03*
%TO.N,/CH_PU*%
X51615000Y-28520000D03*
%TO.N,/RST*%
X53314997Y-23520000D03*
%TO.N,Net-(U1-RES12K)*%
X56290000Y-20520000D03*
X54115000Y-23520000D03*
%TO.N,/SHD{slash}SD2*%
X66050499Y-27520000D03*
X61615000Y-28870000D03*
D15*
%TO.N,/5v*%
X46965000Y-21320000D03*
%TD*%
D16*
%TO.N,/GND*%
X56041057Y-19919000D02*
X52713997Y-23246060D01*
X66299442Y-26919000D02*
X56216000Y-26919000D01*
X67226000Y-28914499D02*
X67226000Y-35996760D01*
X62146000Y-36671000D02*
X66551760Y-36671000D01*
X52713997Y-23768943D02*
X53467054Y-24522000D01*
X66430499Y-20520000D02*
X71025499Y-25115000D01*
X71025499Y-25115000D02*
X67226000Y-28914499D01*
X66551760Y-36671000D02*
X67226000Y-35996760D01*
X67226000Y-35996760D02*
X67226000Y-27845558D01*
X61115000Y-20520000D02*
X66430499Y-20520000D01*
X57940000Y-20520000D02*
X57339000Y-19919000D01*
X57113000Y-24522000D02*
X61115000Y-20520000D01*
X57339000Y-19919000D02*
X56041057Y-19919000D01*
X53467054Y-24522000D02*
X57113000Y-24522000D01*
X56216000Y-26919000D02*
X55615000Y-27520000D01*
X67226000Y-27845558D02*
X66299442Y-26919000D01*
X60995000Y-35520000D02*
X62146000Y-36671000D01*
X52713997Y-23246060D02*
X52713997Y-23768943D01*
%TO.N,Net-(U1-LNA)*%
X49115000Y-28520000D02*
X48389735Y-27794735D01*
X48389735Y-24566792D02*
X48741792Y-24214735D01*
X48741792Y-24214735D02*
X49829735Y-24214735D01*
X48389735Y-27794735D02*
X48389735Y-24566792D01*
X49829735Y-24214735D02*
X50615000Y-25000000D01*
%TO.N,/VDD*%
X48990735Y-24815735D02*
X48990735Y-26745678D01*
X66050499Y-28926000D02*
X66115000Y-28990501D01*
X65370997Y-29670003D02*
X61615000Y-29670003D01*
X51366057Y-29121000D02*
X52014000Y-29121000D01*
X48990735Y-24910735D02*
X50615000Y-26535000D01*
X66050499Y-28926000D02*
X65306496Y-29670003D01*
X52014000Y-29121000D02*
X52713997Y-28421003D01*
X50615000Y-26535000D02*
X50615000Y-29020000D01*
X50615000Y-29020000D02*
X52615000Y-31020000D01*
X66115000Y-28990501D02*
X66115000Y-32845000D01*
X48990735Y-24815735D02*
X48990735Y-24910735D01*
X60765003Y-30520000D02*
X53115000Y-30520000D01*
X48990735Y-26745678D02*
X51366057Y-29121000D01*
X52713997Y-28421003D02*
X52713997Y-25306497D01*
X61615000Y-29670003D02*
X60765003Y-30520000D01*
X53115000Y-30520000D02*
X52615000Y-31020000D01*
%TO.N,/GPIO0*%
X60553015Y-32538015D02*
X63535000Y-35520000D01*
X59096985Y-32538015D02*
X60553015Y-32538015D01*
%TO.N,/GPIO2*%
X63115000Y-32560000D02*
X63115000Y-31232500D01*
X59402500Y-31232500D02*
X63115000Y-31232500D01*
X58115000Y-32520000D02*
X59402500Y-31232500D01*
X66075000Y-35520000D02*
X63115000Y-32560000D01*
%TO.N,/GPIO5*%
X72615000Y-34060000D02*
X72615000Y-26020000D01*
X71155000Y-35520000D02*
X72615000Y-34060000D01*
%TO.N,/CH_PU*%
X57264000Y-15869000D02*
X64884000Y-15869000D01*
X51615000Y-28520000D02*
X51615000Y-21518000D01*
X64884000Y-15869000D02*
X66035000Y-17020000D01*
X51615000Y-21518000D02*
X57264000Y-15869000D01*
%TO.N,/RST*%
X53866057Y-24121000D02*
X56394000Y-24121000D01*
X56394000Y-24121000D02*
X63495000Y-17020000D01*
X53314997Y-23520000D02*
X53314997Y-23569940D01*
X53314997Y-23569940D02*
X53866057Y-24121000D01*
%TO.N,Net-(U1-RES12K)*%
X56290000Y-21345000D02*
X56290000Y-20520000D01*
X54115000Y-23520000D02*
X56290000Y-21345000D01*
%TO.N,/SHD{slash}SD2*%
X64765000Y-28870000D02*
X61615000Y-28870000D01*
X66050499Y-27520000D02*
X64700499Y-28870000D01*
D17*
%TO.N,/5v*%
X46965000Y-27644207D02*
X46965000Y-21320000D01*
X54840793Y-35520000D02*
X46965000Y-27644207D01*
X58455000Y-35520000D02*
X54840793Y-35520000D01*
%TD*%
%TA.AperFunction,Conductor*%
%TO.N,/GND*%
G36*
X72961475Y-15020185D02*
G01*
X73007230Y-15072989D01*
X73018436Y-15124500D01*
X73018436Y-25135075D01*
X72998751Y-25202114D01*
X72945947Y-25247869D01*
X72876789Y-25257813D01*
X72854430Y-25251679D01*
X72854324Y-25252031D01*
X72848500Y-25250264D01*
X72848497Y-25250263D01*
X72848492Y-25250262D01*
X72848489Y-25250261D01*
X72693845Y-25219500D01*
X72693842Y-25219500D01*
X72536158Y-25219500D01*
X72536155Y-25219500D01*
X72381510Y-25250261D01*
X72381498Y-25250264D01*
X72235827Y-25310602D01*
X72235814Y-25310609D01*
X72104711Y-25398210D01*
X72104707Y-25398213D01*
X71993213Y-25509707D01*
X71993210Y-25509711D01*
X71905609Y-25640814D01*
X71905602Y-25640827D01*
X71845264Y-25786498D01*
X71845261Y-25786510D01*
X71814500Y-25941153D01*
X71814500Y-26098846D01*
X71845261Y-26253489D01*
X71845264Y-26253501D01*
X71905602Y-26399172D01*
X71905609Y-26399185D01*
X71993602Y-26530874D01*
X72014480Y-26597551D01*
X72014500Y-26599765D01*
X72014500Y-33759902D01*
X71994815Y-33826941D01*
X71978181Y-33847583D01*
X71639522Y-34186241D01*
X71578199Y-34219726D01*
X71513523Y-34216491D01*
X71471245Y-34202754D01*
X71331272Y-34180584D01*
X71261287Y-34169500D01*
X71048713Y-34169500D01*
X71000042Y-34177208D01*
X70838760Y-34202753D01*
X70636585Y-34268444D01*
X70447179Y-34364951D01*
X70275213Y-34489890D01*
X70124890Y-34640213D01*
X69999949Y-34812182D01*
X69995484Y-34820946D01*
X69947509Y-34871742D01*
X69879688Y-34888536D01*
X69813553Y-34865998D01*
X69774516Y-34820946D01*
X69770050Y-34812182D01*
X69645109Y-34640213D01*
X69494786Y-34489890D01*
X69322820Y-34364951D01*
X69133414Y-34268444D01*
X69133413Y-34268443D01*
X69133412Y-34268443D01*
X68931243Y-34202754D01*
X68931241Y-34202753D01*
X68931240Y-34202753D01*
X68769957Y-34177208D01*
X68721287Y-34169500D01*
X68508713Y-34169500D01*
X68460042Y-34177208D01*
X68298760Y-34202753D01*
X68096585Y-34268444D01*
X67907179Y-34364951D01*
X67735213Y-34489890D01*
X67584890Y-34640213D01*
X67459949Y-34812182D01*
X67455484Y-34820946D01*
X67407509Y-34871742D01*
X67339688Y-34888536D01*
X67273553Y-34865998D01*
X67234516Y-34820946D01*
X67230050Y-34812182D01*
X67105109Y-34640213D01*
X66954786Y-34489890D01*
X66782820Y-34364951D01*
X66593414Y-34268444D01*
X66593413Y-34268443D01*
X66593412Y-34268443D01*
X66391243Y-34202754D01*
X66391241Y-34202753D01*
X66391240Y-34202753D01*
X66229957Y-34177208D01*
X66181287Y-34169500D01*
X65968713Y-34169500D01*
X65940006Y-34174046D01*
X65758757Y-34202753D01*
X65716473Y-34216492D01*
X65646632Y-34218486D01*
X65590476Y-34186241D01*
X63751819Y-32347584D01*
X63718334Y-32286261D01*
X63715500Y-32259903D01*
X63715500Y-31812265D01*
X63735185Y-31745226D01*
X63736398Y-31743374D01*
X63824390Y-31611685D01*
X63824390Y-31611684D01*
X63824394Y-31611679D01*
X63884737Y-31465997D01*
X63915500Y-31311342D01*
X63915500Y-31153658D01*
X63915500Y-31153655D01*
X63915499Y-31153653D01*
X63904596Y-31098842D01*
X63884737Y-30999003D01*
X63884735Y-30998998D01*
X63824397Y-30853327D01*
X63824390Y-30853314D01*
X63736789Y-30722211D01*
X63736786Y-30722207D01*
X63625292Y-30610713D01*
X63625288Y-30610710D01*
X63494185Y-30523109D01*
X63494176Y-30523104D01*
X63460279Y-30509064D01*
X63405876Y-30465223D01*
X63383811Y-30398929D01*
X63401090Y-30331230D01*
X63452227Y-30283619D01*
X63507732Y-30270503D01*
X65219828Y-30270503D01*
X65227435Y-30270503D01*
X65227439Y-30270504D01*
X65385553Y-30270504D01*
X65385553Y-30270503D01*
X65390501Y-30270504D01*
X65457540Y-30290189D01*
X65503295Y-30342993D01*
X65503296Y-30343006D01*
X65514500Y-30394504D01*
X65514500Y-32265234D01*
X65494815Y-32332273D01*
X65493602Y-32334125D01*
X65405609Y-32465814D01*
X65405602Y-32465827D01*
X65345264Y-32611498D01*
X65345261Y-32611510D01*
X65314500Y-32766153D01*
X65314500Y-32923846D01*
X65345261Y-33078489D01*
X65345264Y-33078501D01*
X65405602Y-33224172D01*
X65405609Y-33224185D01*
X65493210Y-33355288D01*
X65493213Y-33355292D01*
X65604707Y-33466786D01*
X65604711Y-33466789D01*
X65735814Y-33554390D01*
X65735827Y-33554397D01*
X65881498Y-33614735D01*
X65881503Y-33614737D01*
X66036153Y-33645499D01*
X66036156Y-33645500D01*
X66036158Y-33645500D01*
X66193844Y-33645500D01*
X66193845Y-33645499D01*
X66348497Y-33614737D01*
X66494179Y-33554394D01*
X66625289Y-33466789D01*
X66736789Y-33355289D01*
X66824394Y-33224179D01*
X66884737Y-33078497D01*
X66915500Y-32923842D01*
X66915500Y-32766158D01*
X66915500Y-32766155D01*
X66915499Y-32766153D01*
X66884738Y-32611510D01*
X66884737Y-32611503D01*
X66830658Y-32480943D01*
X66824397Y-32465827D01*
X66824390Y-32465814D01*
X66736398Y-32334125D01*
X66715520Y-32267447D01*
X66715500Y-32265234D01*
X66715500Y-29409232D01*
X66735185Y-29342193D01*
X66736398Y-29340341D01*
X66759893Y-29305179D01*
X66820236Y-29159497D01*
X66850999Y-29004842D01*
X66850999Y-28847158D01*
X66850999Y-28847155D01*
X66850998Y-28847153D01*
X66839859Y-28791153D01*
X66820236Y-28692503D01*
X66781441Y-28598842D01*
X66759896Y-28546827D01*
X66759889Y-28546814D01*
X66672288Y-28415711D01*
X66672285Y-28415707D01*
X66567259Y-28310681D01*
X66533774Y-28249358D01*
X66538758Y-28179666D01*
X66567259Y-28135319D01*
X66672285Y-28030292D01*
X66672288Y-28030289D01*
X66759893Y-27899179D01*
X66820236Y-27753497D01*
X66850999Y-27598842D01*
X66850999Y-27441158D01*
X66850999Y-27441155D01*
X66850998Y-27441153D01*
X66846790Y-27420000D01*
X66820236Y-27286503D01*
X66820234Y-27286498D01*
X66759896Y-27140827D01*
X66759889Y-27140814D01*
X66672288Y-27009711D01*
X66672285Y-27009707D01*
X66560791Y-26898213D01*
X66560787Y-26898210D01*
X66429684Y-26810609D01*
X66429671Y-26810602D01*
X66284000Y-26750264D01*
X66283988Y-26750261D01*
X66129344Y-26719500D01*
X66129341Y-26719500D01*
X65971657Y-26719500D01*
X65971654Y-26719500D01*
X65817009Y-26750261D01*
X65816997Y-26750264D01*
X65671326Y-26810602D01*
X65671313Y-26810609D01*
X65540210Y-26898210D01*
X65540206Y-26898213D01*
X65428712Y-27009707D01*
X65428709Y-27009711D01*
X65341108Y-27140814D01*
X65341101Y-27140827D01*
X65280763Y-27286498D01*
X65280760Y-27286508D01*
X65249860Y-27441850D01*
X65217475Y-27503761D01*
X65215924Y-27505339D01*
X64488083Y-28233181D01*
X64426760Y-28266666D01*
X64400402Y-28269500D01*
X62194766Y-28269500D01*
X62127727Y-28249815D01*
X62125875Y-28248602D01*
X61994185Y-28160609D01*
X61994172Y-28160602D01*
X61848501Y-28100264D01*
X61848489Y-28100261D01*
X61693845Y-28069500D01*
X61693842Y-28069500D01*
X61536158Y-28069500D01*
X61536155Y-28069500D01*
X61381510Y-28100261D01*
X61381498Y-28100264D01*
X61235827Y-28160602D01*
X61235814Y-28160609D01*
X61104711Y-28248210D01*
X61104707Y-28248213D01*
X60993213Y-28359707D01*
X60993210Y-28359711D01*
X60905609Y-28490814D01*
X60905602Y-28490827D01*
X60845264Y-28636498D01*
X60845261Y-28636510D01*
X60814500Y-28791153D01*
X60814500Y-28948846D01*
X60845261Y-29103489D01*
X60845264Y-29103501D01*
X60894575Y-29222549D01*
X60902044Y-29292018D01*
X60894575Y-29317453D01*
X60845264Y-29436501D01*
X60845261Y-29436511D01*
X60814361Y-29591853D01*
X60781976Y-29653764D01*
X60780425Y-29655342D01*
X60552587Y-29883181D01*
X60491264Y-29916666D01*
X60464906Y-29919500D01*
X53201670Y-29919500D01*
X53201654Y-29919499D01*
X53194058Y-29919499D01*
X53035943Y-29919499D01*
X52959579Y-29939961D01*
X52883214Y-29960423D01*
X52883209Y-29960426D01*
X52746290Y-30039475D01*
X52746282Y-30039481D01*
X52702679Y-30083084D01*
X52641356Y-30116568D01*
X52571664Y-30111583D01*
X52527318Y-30083083D01*
X52283358Y-29839123D01*
X52249873Y-29777800D01*
X52254857Y-29708108D01*
X52296729Y-29652175D01*
X52309033Y-29644059D01*
X52382716Y-29601520D01*
X52494520Y-29489716D01*
X52494520Y-29489714D01*
X52504728Y-29479507D01*
X52504730Y-29479504D01*
X52786657Y-29197577D01*
X54290975Y-29197577D01*
X54396236Y-29241178D01*
X54396240Y-29241179D01*
X54541126Y-29269999D01*
X54541129Y-29270000D01*
X54688871Y-29270000D01*
X54688873Y-29269999D01*
X54833760Y-29241179D01*
X54833775Y-29241175D01*
X54939024Y-29197578D01*
X54939024Y-29197577D01*
X55290975Y-29197577D01*
X55396236Y-29241178D01*
X55396240Y-29241179D01*
X55541126Y-29269999D01*
X55541129Y-29270000D01*
X55688871Y-29270000D01*
X55688873Y-29269999D01*
X55833760Y-29241179D01*
X55833775Y-29241175D01*
X55939024Y-29197578D01*
X55939024Y-29197577D01*
X56290975Y-29197577D01*
X56396236Y-29241178D01*
X56396240Y-29241179D01*
X56541126Y-29269999D01*
X56541129Y-29270000D01*
X56688871Y-29270000D01*
X56688873Y-29269999D01*
X56833760Y-29241179D01*
X56833775Y-29241175D01*
X56939024Y-29197578D01*
X56939024Y-29197577D01*
X56615001Y-28873554D01*
X56615000Y-28873554D01*
X56290975Y-29197577D01*
X55939024Y-29197577D01*
X55615001Y-28873554D01*
X55615000Y-28873554D01*
X55290975Y-29197577D01*
X54939024Y-29197577D01*
X54615001Y-28873554D01*
X54615000Y-28873554D01*
X54290975Y-29197577D01*
X52786657Y-29197577D01*
X53072503Y-28911731D01*
X53072508Y-28911727D01*
X53082711Y-28901523D01*
X53082713Y-28901523D01*
X53194517Y-28789719D01*
X53257715Y-28680256D01*
X53273574Y-28652788D01*
X53314497Y-28500061D01*
X53314497Y-28446126D01*
X53865000Y-28446126D01*
X53865000Y-28593873D01*
X53893820Y-28738759D01*
X53893822Y-28738767D01*
X53937421Y-28844024D01*
X54261446Y-28520000D01*
X54261446Y-28519999D01*
X54241556Y-28500109D01*
X54515000Y-28500109D01*
X54515000Y-28539891D01*
X54530224Y-28576645D01*
X54558355Y-28604776D01*
X54595109Y-28620000D01*
X54634891Y-28620000D01*
X54671645Y-28604776D01*
X54699776Y-28576645D01*
X54715000Y-28539891D01*
X54715000Y-28520000D01*
X54968554Y-28520000D01*
X55115000Y-28666446D01*
X55261446Y-28520000D01*
X55241555Y-28500109D01*
X55515000Y-28500109D01*
X55515000Y-28539891D01*
X55530224Y-28576645D01*
X55558355Y-28604776D01*
X55595109Y-28620000D01*
X55634891Y-28620000D01*
X55671645Y-28604776D01*
X55699776Y-28576645D01*
X55715000Y-28539891D01*
X55715000Y-28520000D01*
X55968554Y-28520000D01*
X56115000Y-28666446D01*
X56261446Y-28520000D01*
X56241555Y-28500109D01*
X56515000Y-28500109D01*
X56515000Y-28539891D01*
X56530224Y-28576645D01*
X56558355Y-28604776D01*
X56595109Y-28620000D01*
X56634891Y-28620000D01*
X56671645Y-28604776D01*
X56699776Y-28576645D01*
X56715000Y-28539891D01*
X56715000Y-28519999D01*
X56968554Y-28519999D01*
X56968554Y-28520001D01*
X57292577Y-28844024D01*
X57292578Y-28844024D01*
X57336175Y-28738775D01*
X57336179Y-28738760D01*
X57364999Y-28593873D01*
X57365000Y-28593871D01*
X57365000Y-28446128D01*
X57364999Y-28446126D01*
X57336179Y-28301240D01*
X57336178Y-28301236D01*
X57292577Y-28195975D01*
X56968554Y-28519999D01*
X56715000Y-28519999D01*
X56715000Y-28500109D01*
X56699776Y-28463355D01*
X56671645Y-28435224D01*
X56634891Y-28420000D01*
X56595109Y-28420000D01*
X56558355Y-28435224D01*
X56530224Y-28463355D01*
X56515000Y-28500109D01*
X56241555Y-28500109D01*
X56115000Y-28373554D01*
X55968554Y-28520000D01*
X55715000Y-28520000D01*
X55715000Y-28500109D01*
X55699776Y-28463355D01*
X55671645Y-28435224D01*
X55634891Y-28420000D01*
X55595109Y-28420000D01*
X55558355Y-28435224D01*
X55530224Y-28463355D01*
X55515000Y-28500109D01*
X55241555Y-28500109D01*
X55115000Y-28373554D01*
X54968554Y-28520000D01*
X54715000Y-28520000D01*
X54715000Y-28500109D01*
X54699776Y-28463355D01*
X54671645Y-28435224D01*
X54634891Y-28420000D01*
X54595109Y-28420000D01*
X54558355Y-28435224D01*
X54530224Y-28463355D01*
X54515000Y-28500109D01*
X54241556Y-28500109D01*
X53937421Y-28195974D01*
X53937420Y-28195974D01*
X53893823Y-28301228D01*
X53893820Y-28301240D01*
X53865000Y-28446126D01*
X53314497Y-28446126D01*
X53314497Y-28341946D01*
X53314497Y-28020000D01*
X54468554Y-28020000D01*
X54615000Y-28166446D01*
X54761446Y-28020000D01*
X55468554Y-28020000D01*
X55615000Y-28166446D01*
X55761446Y-28020000D01*
X56468554Y-28020000D01*
X56615000Y-28166446D01*
X56761446Y-28020000D01*
X56615000Y-27873554D01*
X56468554Y-28020000D01*
X55761446Y-28020000D01*
X55615000Y-27873554D01*
X55468554Y-28020000D01*
X54761446Y-28020000D01*
X54615000Y-27873554D01*
X54468554Y-28020000D01*
X53314497Y-28020000D01*
X53314497Y-27446126D01*
X53865000Y-27446126D01*
X53865000Y-27593873D01*
X53893820Y-27738759D01*
X53893822Y-27738767D01*
X53937421Y-27844024D01*
X54261446Y-27520000D01*
X54261446Y-27519999D01*
X54241556Y-27500109D01*
X54515000Y-27500109D01*
X54515000Y-27539891D01*
X54530224Y-27576645D01*
X54558355Y-27604776D01*
X54595109Y-27620000D01*
X54634891Y-27620000D01*
X54671645Y-27604776D01*
X54699776Y-27576645D01*
X54715000Y-27539891D01*
X54715000Y-27520000D01*
X54968554Y-27520000D01*
X55115000Y-27666446D01*
X55261446Y-27520000D01*
X55241555Y-27500109D01*
X55515000Y-27500109D01*
X55515000Y-27539891D01*
X55530224Y-27576645D01*
X55558355Y-27604776D01*
X55595109Y-27620000D01*
X55634891Y-27620000D01*
X55671645Y-27604776D01*
X55699776Y-27576645D01*
X55715000Y-27539891D01*
X55715000Y-27520000D01*
X55968554Y-27520000D01*
X56115000Y-27666446D01*
X56261446Y-27520000D01*
X56241555Y-27500109D01*
X56515000Y-27500109D01*
X56515000Y-27539891D01*
X56530224Y-27576645D01*
X56558355Y-27604776D01*
X56595109Y-27620000D01*
X56634891Y-27620000D01*
X56671645Y-27604776D01*
X56699776Y-27576645D01*
X56715000Y-27539891D01*
X56715000Y-27519999D01*
X56968554Y-27519999D01*
X56968554Y-27520001D01*
X57292577Y-27844024D01*
X57292578Y-27844024D01*
X57336175Y-27738775D01*
X57336179Y-27738760D01*
X57364999Y-27593873D01*
X57365000Y-27593871D01*
X57365000Y-27446128D01*
X57364999Y-27446126D01*
X57336179Y-27301240D01*
X57336178Y-27301236D01*
X57292577Y-27195975D01*
X56968554Y-27519999D01*
X56715000Y-27519999D01*
X56715000Y-27500109D01*
X56699776Y-27463355D01*
X56671645Y-27435224D01*
X56634891Y-27420000D01*
X56595109Y-27420000D01*
X56558355Y-27435224D01*
X56530224Y-27463355D01*
X56515000Y-27500109D01*
X56241555Y-27500109D01*
X56115000Y-27373554D01*
X55968554Y-27520000D01*
X55715000Y-27520000D01*
X55715000Y-27500109D01*
X55699776Y-27463355D01*
X55671645Y-27435224D01*
X55634891Y-27420000D01*
X55595109Y-27420000D01*
X55558355Y-27435224D01*
X55530224Y-27463355D01*
X55515000Y-27500109D01*
X55241555Y-27500109D01*
X55115000Y-27373554D01*
X54968554Y-27520000D01*
X54715000Y-27520000D01*
X54715000Y-27500109D01*
X54699776Y-27463355D01*
X54671645Y-27435224D01*
X54634891Y-27420000D01*
X54595109Y-27420000D01*
X54558355Y-27435224D01*
X54530224Y-27463355D01*
X54515000Y-27500109D01*
X54241556Y-27500109D01*
X53937421Y-27195974D01*
X53937420Y-27195974D01*
X53893823Y-27301228D01*
X53893820Y-27301240D01*
X53865000Y-27446126D01*
X53314497Y-27446126D01*
X53314497Y-27020000D01*
X54468554Y-27020000D01*
X54615000Y-27166446D01*
X54761446Y-27020000D01*
X55468554Y-27020000D01*
X55615000Y-27166446D01*
X55761446Y-27020000D01*
X56468554Y-27020000D01*
X56615000Y-27166446D01*
X56761446Y-27020000D01*
X56615000Y-26873554D01*
X56468554Y-27020000D01*
X55761446Y-27020000D01*
X55615000Y-26873554D01*
X55468554Y-27020000D01*
X54761446Y-27020000D01*
X54615000Y-26873554D01*
X54468554Y-27020000D01*
X53314497Y-27020000D01*
X53314497Y-26446126D01*
X53865000Y-26446126D01*
X53865000Y-26593873D01*
X53893820Y-26738759D01*
X53893822Y-26738767D01*
X53937421Y-26844024D01*
X54261446Y-26520000D01*
X54261446Y-26519999D01*
X54241556Y-26500109D01*
X54515000Y-26500109D01*
X54515000Y-26539891D01*
X54530224Y-26576645D01*
X54558355Y-26604776D01*
X54595109Y-26620000D01*
X54634891Y-26620000D01*
X54671645Y-26604776D01*
X54699776Y-26576645D01*
X54715000Y-26539891D01*
X54715000Y-26520000D01*
X54968554Y-26520000D01*
X55115000Y-26666446D01*
X55261446Y-26520000D01*
X55241555Y-26500109D01*
X55515000Y-26500109D01*
X55515000Y-26539891D01*
X55530224Y-26576645D01*
X55558355Y-26604776D01*
X55595109Y-26620000D01*
X55634891Y-26620000D01*
X55671645Y-26604776D01*
X55699776Y-26576645D01*
X55715000Y-26539891D01*
X55715000Y-26520000D01*
X55968554Y-26520000D01*
X56115000Y-26666446D01*
X56261446Y-26520000D01*
X56241555Y-26500109D01*
X56515000Y-26500109D01*
X56515000Y-26539891D01*
X56530224Y-26576645D01*
X56558355Y-26604776D01*
X56595109Y-26620000D01*
X56634891Y-26620000D01*
X56671645Y-26604776D01*
X56699776Y-26576645D01*
X56715000Y-26539891D01*
X56715000Y-26519999D01*
X56968554Y-26519999D01*
X56968554Y-26520001D01*
X57292577Y-26844024D01*
X57292578Y-26844024D01*
X57336175Y-26738775D01*
X57336179Y-26738760D01*
X57364999Y-26593873D01*
X57365000Y-26593871D01*
X57365000Y-26446128D01*
X57364999Y-26446126D01*
X57336179Y-26301240D01*
X57336178Y-26301236D01*
X57292577Y-26195975D01*
X56968554Y-26519999D01*
X56715000Y-26519999D01*
X56715000Y-26500109D01*
X56699776Y-26463355D01*
X56671645Y-26435224D01*
X56634891Y-26420000D01*
X56595109Y-26420000D01*
X56558355Y-26435224D01*
X56530224Y-26463355D01*
X56515000Y-26500109D01*
X56241555Y-26500109D01*
X56115000Y-26373554D01*
X55968554Y-26520000D01*
X55715000Y-26520000D01*
X55715000Y-26500109D01*
X55699776Y-26463355D01*
X55671645Y-26435224D01*
X55634891Y-26420000D01*
X55595109Y-26420000D01*
X55558355Y-26435224D01*
X55530224Y-26463355D01*
X55515000Y-26500109D01*
X55241555Y-26500109D01*
X55115000Y-26373554D01*
X54968554Y-26520000D01*
X54715000Y-26520000D01*
X54715000Y-26500109D01*
X54699776Y-26463355D01*
X54671645Y-26435224D01*
X54634891Y-26420000D01*
X54595109Y-26420000D01*
X54558355Y-26435224D01*
X54530224Y-26463355D01*
X54515000Y-26500109D01*
X54241556Y-26500109D01*
X53937421Y-26195974D01*
X53937420Y-26195974D01*
X53893823Y-26301228D01*
X53893820Y-26301240D01*
X53865000Y-26446126D01*
X53314497Y-26446126D01*
X53314497Y-25842420D01*
X54290974Y-25842420D01*
X54290974Y-25842421D01*
X54615000Y-26166446D01*
X54615001Y-26166446D01*
X54939024Y-25842421D01*
X54939022Y-25842420D01*
X55290974Y-25842420D01*
X55290974Y-25842421D01*
X55615000Y-26166446D01*
X55615001Y-26166446D01*
X55939024Y-25842421D01*
X55939022Y-25842420D01*
X56290974Y-25842420D01*
X56290974Y-25842421D01*
X56615000Y-26166446D01*
X56615001Y-26166446D01*
X56939024Y-25842421D01*
X56833767Y-25798822D01*
X56833759Y-25798820D01*
X56688872Y-25770000D01*
X56541128Y-25770000D01*
X56396240Y-25798820D01*
X56396228Y-25798823D01*
X56290974Y-25842420D01*
X55939022Y-25842420D01*
X55833767Y-25798822D01*
X55833759Y-25798820D01*
X55688872Y-25770000D01*
X55541128Y-25770000D01*
X55396240Y-25798820D01*
X55396228Y-25798823D01*
X55290974Y-25842420D01*
X54939022Y-25842420D01*
X54833767Y-25798822D01*
X54833759Y-25798820D01*
X54688872Y-25770000D01*
X54541128Y-25770000D01*
X54396240Y-25798820D01*
X54396228Y-25798823D01*
X54290974Y-25842420D01*
X53314497Y-25842420D01*
X53314497Y-25599765D01*
X53334182Y-25532726D01*
X53335395Y-25530874D01*
X53423387Y-25399185D01*
X53423387Y-25399184D01*
X53423391Y-25399179D01*
X53483734Y-25253497D01*
X53514497Y-25098842D01*
X53514497Y-24941158D01*
X53514497Y-24941155D01*
X53491905Y-24827583D01*
X53498132Y-24757992D01*
X53540994Y-24702814D01*
X53606884Y-24679569D01*
X53645613Y-24683615D01*
X53787000Y-24721501D01*
X53787002Y-24721501D01*
X53952711Y-24721501D01*
X53952727Y-24721500D01*
X56307331Y-24721500D01*
X56307347Y-24721501D01*
X56314943Y-24721501D01*
X56473054Y-24721501D01*
X56473057Y-24721501D01*
X56625785Y-24680577D01*
X56694644Y-24640821D01*
X56762716Y-24601520D01*
X56874520Y-24489716D01*
X56874520Y-24489714D01*
X56884724Y-24479511D01*
X56884728Y-24479506D01*
X63010478Y-18353755D01*
X63071799Y-18320272D01*
X63136473Y-18323506D01*
X63178757Y-18337246D01*
X63388713Y-18370500D01*
X63388714Y-18370500D01*
X63601286Y-18370500D01*
X63601287Y-18370500D01*
X63811243Y-18337246D01*
X64013412Y-18271557D01*
X64202816Y-18175051D01*
X64289138Y-18112335D01*
X64374786Y-18050109D01*
X64374788Y-18050106D01*
X64374792Y-18050104D01*
X64525104Y-17899792D01*
X64525106Y-17899788D01*
X64525109Y-17899786D01*
X64650048Y-17727820D01*
X64650047Y-17727820D01*
X64650051Y-17727816D01*
X64654514Y-17719054D01*
X64702488Y-17668259D01*
X64770308Y-17651463D01*
X64836444Y-17673999D01*
X64875486Y-17719056D01*
X64879951Y-17727820D01*
X65004890Y-17899786D01*
X65155213Y-18050109D01*
X65327179Y-18175048D01*
X65327181Y-18175049D01*
X65327184Y-18175051D01*
X65516588Y-18271557D01*
X65718757Y-18337246D01*
X65928713Y-18370500D01*
X65928714Y-18370500D01*
X66141286Y-18370500D01*
X66141287Y-18370500D01*
X66351243Y-18337246D01*
X66553412Y-18271557D01*
X66742816Y-18175051D01*
X66829138Y-18112335D01*
X66914786Y-18050109D01*
X66914788Y-18050106D01*
X66914792Y-18050104D01*
X67065104Y-17899792D01*
X67065106Y-17899788D01*
X67065109Y-17899786D01*
X67190048Y-17727820D01*
X67190047Y-17727820D01*
X67190051Y-17727816D01*
X67194514Y-17719054D01*
X67242488Y-17668259D01*
X67310308Y-17651463D01*
X67376444Y-17673999D01*
X67415486Y-17719056D01*
X67419951Y-17727820D01*
X67544890Y-17899786D01*
X67695213Y-18050109D01*
X67867179Y-18175048D01*
X67867181Y-18175049D01*
X67867184Y-18175051D01*
X68056588Y-18271557D01*
X68258757Y-18337246D01*
X68468713Y-18370500D01*
X68468714Y-18370500D01*
X68681286Y-18370500D01*
X68681287Y-18370500D01*
X68891243Y-18337246D01*
X69093412Y-18271557D01*
X69282816Y-18175051D01*
X69369138Y-18112335D01*
X69454786Y-18050109D01*
X69454788Y-18050106D01*
X69454792Y-18050104D01*
X69605104Y-17899792D01*
X69605106Y-17899788D01*
X69605109Y-17899786D01*
X69730048Y-17727820D01*
X69730047Y-17727820D01*
X69730051Y-17727816D01*
X69734514Y-17719054D01*
X69782488Y-17668259D01*
X69850308Y-17651463D01*
X69916444Y-17673999D01*
X69955486Y-17719056D01*
X69959951Y-17727820D01*
X70084890Y-17899786D01*
X70235213Y-18050109D01*
X70407179Y-18175048D01*
X70407181Y-18175049D01*
X70407184Y-18175051D01*
X70596588Y-18271557D01*
X70798757Y-18337246D01*
X71008713Y-18370500D01*
X71008714Y-18370500D01*
X71221286Y-18370500D01*
X71221287Y-18370500D01*
X71431243Y-18337246D01*
X71633412Y-18271557D01*
X71822816Y-18175051D01*
X71909138Y-18112335D01*
X71994786Y-18050109D01*
X71994788Y-18050106D01*
X71994792Y-18050104D01*
X72145104Y-17899792D01*
X72145106Y-17899788D01*
X72145109Y-17899786D01*
X72270048Y-17727820D01*
X72270047Y-17727820D01*
X72270051Y-17727816D01*
X72366557Y-17538412D01*
X72432246Y-17336243D01*
X72465500Y-17126287D01*
X72465500Y-16913713D01*
X72432246Y-16703757D01*
X72366557Y-16501588D01*
X72270051Y-16312184D01*
X72270049Y-16312181D01*
X72270048Y-16312179D01*
X72145109Y-16140213D01*
X71994786Y-15989890D01*
X71822820Y-15864951D01*
X71633414Y-15768444D01*
X71633413Y-15768443D01*
X71633412Y-15768443D01*
X71431243Y-15702754D01*
X71431241Y-15702753D01*
X71431240Y-15702753D01*
X71269957Y-15677208D01*
X71221287Y-15669500D01*
X71008713Y-15669500D01*
X70960042Y-15677208D01*
X70798760Y-15702753D01*
X70596585Y-15768444D01*
X70407179Y-15864951D01*
X70235213Y-15989890D01*
X70084890Y-16140213D01*
X69959949Y-16312182D01*
X69955484Y-16320946D01*
X69907509Y-16371742D01*
X69839688Y-16388536D01*
X69773553Y-16365998D01*
X69734516Y-16320946D01*
X69730050Y-16312182D01*
X69605109Y-16140213D01*
X69454786Y-15989890D01*
X69282820Y-15864951D01*
X69093414Y-15768444D01*
X69093413Y-15768443D01*
X69093412Y-15768443D01*
X68891243Y-15702754D01*
X68891241Y-15702753D01*
X68891240Y-15702753D01*
X68729957Y-15677208D01*
X68681287Y-15669500D01*
X68468713Y-15669500D01*
X68420042Y-15677208D01*
X68258760Y-15702753D01*
X68056585Y-15768444D01*
X67867179Y-15864951D01*
X67695213Y-15989890D01*
X67544890Y-16140213D01*
X67419949Y-16312182D01*
X67415484Y-16320946D01*
X67367509Y-16371742D01*
X67299688Y-16388536D01*
X67233553Y-16365998D01*
X67194516Y-16320946D01*
X67190050Y-16312182D01*
X67065109Y-16140213D01*
X66914786Y-15989890D01*
X66742820Y-15864951D01*
X66553414Y-15768444D01*
X66553413Y-15768443D01*
X66553412Y-15768443D01*
X66351243Y-15702754D01*
X66351241Y-15702753D01*
X66351240Y-15702753D01*
X66189957Y-15677208D01*
X66141287Y-15669500D01*
X65928713Y-15669500D01*
X65900006Y-15674046D01*
X65718757Y-15702753D01*
X65676473Y-15716492D01*
X65606632Y-15718486D01*
X65550476Y-15686241D01*
X65371590Y-15507355D01*
X65371588Y-15507352D01*
X65252717Y-15388481D01*
X65252716Y-15388480D01*
X65165904Y-15338360D01*
X65165904Y-15338359D01*
X65165900Y-15338358D01*
X65115785Y-15309423D01*
X64963057Y-15268499D01*
X64804943Y-15268499D01*
X64797347Y-15268499D01*
X64797331Y-15268500D01*
X57184940Y-15268500D01*
X57144019Y-15279464D01*
X57144019Y-15279465D01*
X57106751Y-15289451D01*
X57032214Y-15309423D01*
X57032209Y-15309426D01*
X56895290Y-15388475D01*
X56895282Y-15388481D01*
X51134481Y-21149282D01*
X51134477Y-21149287D01*
X51111122Y-21189742D01*
X51111121Y-21189744D01*
X51055423Y-21286215D01*
X51014499Y-21438943D01*
X51014499Y-21438945D01*
X51014499Y-21607046D01*
X51014500Y-21607059D01*
X51014500Y-24113444D01*
X50994815Y-24180483D01*
X50942011Y-24226238D01*
X50872853Y-24236182D01*
X50865462Y-24234890D01*
X50853925Y-24232511D01*
X50848497Y-24230263D01*
X50693842Y-24199500D01*
X50693807Y-24199500D01*
X50692303Y-24199190D01*
X50661835Y-24182981D01*
X50631238Y-24166976D01*
X50630633Y-24166381D01*
X50630619Y-24166374D01*
X50630611Y-24166359D01*
X50629660Y-24165425D01*
X50317325Y-23853090D01*
X50317323Y-23853087D01*
X50198452Y-23734216D01*
X50198451Y-23734215D01*
X50111639Y-23684095D01*
X50111639Y-23684094D01*
X50111635Y-23684093D01*
X50061520Y-23655158D01*
X49908792Y-23614234D01*
X49750678Y-23614234D01*
X49743082Y-23614234D01*
X49743066Y-23614235D01*
X48828462Y-23614235D01*
X48828446Y-23614234D01*
X48820850Y-23614234D01*
X48662735Y-23614234D01*
X48522528Y-23651802D01*
X48510003Y-23655159D01*
X48373079Y-23734212D01*
X48373074Y-23734216D01*
X48077181Y-24030109D01*
X48015858Y-24063594D01*
X47946166Y-24058610D01*
X47890233Y-24016738D01*
X47865816Y-23951274D01*
X47865500Y-23942428D01*
X47865500Y-21231306D01*
X47865499Y-21231304D01*
X47830896Y-21057341D01*
X47830893Y-21057332D01*
X47763016Y-20893459D01*
X47763009Y-20893446D01*
X47664464Y-20745965D01*
X47664461Y-20745961D01*
X47539038Y-20620538D01*
X47539034Y-20620535D01*
X47391553Y-20521990D01*
X47391540Y-20521983D01*
X47227667Y-20454106D01*
X47227658Y-20454103D01*
X47053694Y-20419500D01*
X47053691Y-20419500D01*
X46876309Y-20419500D01*
X46876306Y-20419500D01*
X46702341Y-20454103D01*
X46702332Y-20454106D01*
X46538459Y-20521983D01*
X46538446Y-20521990D01*
X46390965Y-20620535D01*
X46390961Y-20620538D01*
X46265538Y-20745961D01*
X46265535Y-20745965D01*
X46166990Y-20893446D01*
X46166983Y-20893459D01*
X46099106Y-21057332D01*
X46099103Y-21057341D01*
X46064500Y-21231304D01*
X46064500Y-27732903D01*
X46099103Y-27906865D01*
X46099105Y-27906873D01*
X46133046Y-27988813D01*
X46166987Y-28070754D01*
X46216932Y-28145501D01*
X46220299Y-28150540D01*
X46220300Y-28150542D01*
X46265537Y-28218245D01*
X46265540Y-28218248D01*
X54141329Y-36094035D01*
X54215003Y-36167709D01*
X54266759Y-36219465D01*
X54414239Y-36318009D01*
X54414252Y-36318016D01*
X54519294Y-36361525D01*
X54578127Y-36385894D01*
X54620728Y-36394368D01*
X54752098Y-36420500D01*
X54752101Y-36420500D01*
X54752102Y-36420500D01*
X57003560Y-36420500D01*
X57070599Y-36440185D01*
X57116354Y-36492989D01*
X57119742Y-36501167D01*
X57161202Y-36612328D01*
X57161206Y-36612335D01*
X57247452Y-36727544D01*
X57247455Y-36727547D01*
X57362664Y-36813793D01*
X57362671Y-36813797D01*
X57497517Y-36864091D01*
X57497516Y-36864091D01*
X57504444Y-36864835D01*
X57557127Y-36870500D01*
X59352872Y-36870499D01*
X59412483Y-36864091D01*
X59547331Y-36813796D01*
X59662546Y-36727546D01*
X59748796Y-36612331D01*
X59799091Y-36477483D01*
X59805500Y-36417873D01*
X59805499Y-36393979D01*
X59808330Y-36380963D01*
X59818940Y-36361525D01*
X59825179Y-36340275D01*
X59841803Y-36319643D01*
X59841808Y-36319636D01*
X59841811Y-36319634D01*
X59841818Y-36319626D01*
X60512037Y-35649408D01*
X60529075Y-35712993D01*
X60594901Y-35827007D01*
X60687993Y-35920099D01*
X60802007Y-35985925D01*
X60865590Y-36002962D01*
X60233282Y-36635269D01*
X60233282Y-36635270D01*
X60287449Y-36674624D01*
X60476782Y-36771095D01*
X60678870Y-36836757D01*
X60888754Y-36870000D01*
X61101246Y-36870000D01*
X61311127Y-36836757D01*
X61311130Y-36836757D01*
X61513217Y-36771095D01*
X61702554Y-36674622D01*
X61756716Y-36635270D01*
X61756717Y-36635270D01*
X61124408Y-36002962D01*
X61187993Y-35985925D01*
X61302007Y-35920099D01*
X61395099Y-35827007D01*
X61460925Y-35712993D01*
X61477962Y-35649408D01*
X62110270Y-36281717D01*
X62110270Y-36281716D01*
X62149622Y-36227555D01*
X62154232Y-36218507D01*
X62202205Y-36167709D01*
X62270025Y-36150912D01*
X62336161Y-36173447D01*
X62375204Y-36218504D01*
X62379949Y-36227817D01*
X62504890Y-36399786D01*
X62655213Y-36550109D01*
X62827179Y-36675048D01*
X62827181Y-36675049D01*
X62827184Y-36675051D01*
X63016588Y-36771557D01*
X63218757Y-36837246D01*
X63428713Y-36870500D01*
X63428714Y-36870500D01*
X63641286Y-36870500D01*
X63641287Y-36870500D01*
X63851243Y-36837246D01*
X64053412Y-36771557D01*
X64242816Y-36675051D01*
X64329138Y-36612335D01*
X64414786Y-36550109D01*
X64414788Y-36550106D01*
X64414792Y-36550104D01*
X64565104Y-36399792D01*
X64565106Y-36399788D01*
X64565109Y-36399786D01*
X64690048Y-36227820D01*
X64690050Y-36227817D01*
X64690051Y-36227816D01*
X64694514Y-36219054D01*
X64742488Y-36168259D01*
X64810308Y-36151463D01*
X64876444Y-36173999D01*
X64915484Y-36219054D01*
X64915694Y-36219465D01*
X64919951Y-36227820D01*
X65044890Y-36399786D01*
X65195213Y-36550109D01*
X65367179Y-36675048D01*
X65367181Y-36675049D01*
X65367184Y-36675051D01*
X65556588Y-36771557D01*
X65758757Y-36837246D01*
X65968713Y-36870500D01*
X65968714Y-36870500D01*
X66181286Y-36870500D01*
X66181287Y-36870500D01*
X66391243Y-36837246D01*
X66593412Y-36771557D01*
X66782816Y-36675051D01*
X66869138Y-36612335D01*
X66954786Y-36550109D01*
X66954788Y-36550106D01*
X66954792Y-36550104D01*
X67105104Y-36399792D01*
X67105106Y-36399788D01*
X67105109Y-36399786D01*
X67230048Y-36227820D01*
X67230050Y-36227817D01*
X67230051Y-36227816D01*
X67234514Y-36219054D01*
X67282488Y-36168259D01*
X67350308Y-36151463D01*
X67416444Y-36173999D01*
X67455484Y-36219054D01*
X67455694Y-36219465D01*
X67459951Y-36227820D01*
X67584890Y-36399786D01*
X67735213Y-36550109D01*
X67907179Y-36675048D01*
X67907181Y-36675049D01*
X67907184Y-36675051D01*
X68096588Y-36771557D01*
X68298757Y-36837246D01*
X68508713Y-36870500D01*
X68508714Y-36870500D01*
X68721286Y-36870500D01*
X68721287Y-36870500D01*
X68931243Y-36837246D01*
X69133412Y-36771557D01*
X69322816Y-36675051D01*
X69409138Y-36612335D01*
X69494786Y-36550109D01*
X69494788Y-36550106D01*
X69494792Y-36550104D01*
X69645104Y-36399792D01*
X69645106Y-36399788D01*
X69645109Y-36399786D01*
X69770048Y-36227820D01*
X69770050Y-36227817D01*
X69770051Y-36227816D01*
X69774514Y-36219054D01*
X69822488Y-36168259D01*
X69890308Y-36151463D01*
X69956444Y-36173999D01*
X69995484Y-36219054D01*
X69995694Y-36219465D01*
X69999951Y-36227820D01*
X70124890Y-36399786D01*
X70275213Y-36550109D01*
X70447179Y-36675048D01*
X70447181Y-36675049D01*
X70447184Y-36675051D01*
X70636588Y-36771557D01*
X70838757Y-36837246D01*
X71048713Y-36870500D01*
X71048714Y-36870500D01*
X71261286Y-36870500D01*
X71261287Y-36870500D01*
X71471243Y-36837246D01*
X71673412Y-36771557D01*
X71862816Y-36675051D01*
X71949138Y-36612335D01*
X72034786Y-36550109D01*
X72034788Y-36550106D01*
X72034792Y-36550104D01*
X72185104Y-36399792D01*
X72185106Y-36399788D01*
X72185109Y-36399786D01*
X72310048Y-36227820D01*
X72310050Y-36227817D01*
X72310051Y-36227816D01*
X72406557Y-36038412D01*
X72472246Y-35836243D01*
X72505500Y-35626287D01*
X72505500Y-35413713D01*
X72472246Y-35203757D01*
X72458506Y-35161473D01*
X72456512Y-35091635D01*
X72488755Y-35035478D01*
X72806756Y-34717478D01*
X72868078Y-34683994D01*
X72937770Y-34688978D01*
X72993703Y-34730850D01*
X73018120Y-34796314D01*
X73018436Y-34805160D01*
X73018436Y-37375500D01*
X72998751Y-37442539D01*
X72945947Y-37488294D01*
X72894436Y-37499500D01*
X32643436Y-37499500D01*
X32576397Y-37479815D01*
X32530642Y-37427011D01*
X32519436Y-37375500D01*
X32519436Y-20921153D01*
X40199500Y-20921153D01*
X40199500Y-21078846D01*
X40230261Y-21233489D01*
X40230264Y-21233501D01*
X40290602Y-21379172D01*
X40290609Y-21379185D01*
X40378210Y-21510288D01*
X40378213Y-21510292D01*
X40489707Y-21621786D01*
X40489711Y-21621789D01*
X40620814Y-21709390D01*
X40620827Y-21709397D01*
X40721405Y-21751057D01*
X40766503Y-21769737D01*
X40921153Y-21800499D01*
X40921156Y-21800500D01*
X40921158Y-21800500D01*
X41078844Y-21800500D01*
X41078845Y-21800499D01*
X41233497Y-21769737D01*
X41379179Y-21709394D01*
X41510289Y-21621789D01*
X41621789Y-21510289D01*
X41709394Y-21379179D01*
X41769737Y-21233497D01*
X41800500Y-21078842D01*
X41800500Y-20921158D01*
X41800500Y-20921155D01*
X41800499Y-20921153D01*
X41769738Y-20766510D01*
X41769737Y-20766503D01*
X41769735Y-20766498D01*
X41709397Y-20620827D01*
X41709390Y-20620814D01*
X41621789Y-20489711D01*
X41621786Y-20489707D01*
X41510292Y-20378213D01*
X41510288Y-20378210D01*
X41379185Y-20290609D01*
X41379172Y-20290602D01*
X41233501Y-20230264D01*
X41233489Y-20230261D01*
X41078845Y-20199500D01*
X41078842Y-20199500D01*
X40921158Y-20199500D01*
X40921155Y-20199500D01*
X40766510Y-20230261D01*
X40766498Y-20230264D01*
X40620827Y-20290602D01*
X40620814Y-20290609D01*
X40489711Y-20378210D01*
X40489707Y-20378213D01*
X40378213Y-20489707D01*
X40378210Y-20489711D01*
X40290609Y-20620814D01*
X40290602Y-20620827D01*
X40230264Y-20766498D01*
X40230261Y-20766510D01*
X40199500Y-20921153D01*
X32519436Y-20921153D01*
X32519436Y-15124500D01*
X32539121Y-15057461D01*
X32591925Y-15011706D01*
X32643436Y-15000500D01*
X72894436Y-15000500D01*
X72961475Y-15020185D01*
G37*
%TD.AperFunction*%
%TA.AperFunction,Conductor*%
G36*
X58432942Y-31140185D02*
G01*
X58478697Y-31192989D01*
X58488641Y-31262147D01*
X58459616Y-31325703D01*
X58453584Y-31332181D01*
X58100339Y-31685425D01*
X58039016Y-31718910D01*
X58036850Y-31719361D01*
X57881508Y-31750261D01*
X57881498Y-31750264D01*
X57735827Y-31810602D01*
X57735814Y-31810609D01*
X57604711Y-31898210D01*
X57604707Y-31898213D01*
X57493213Y-32009707D01*
X57493210Y-32009711D01*
X57405609Y-32140814D01*
X57405602Y-32140827D01*
X57345264Y-32286498D01*
X57345261Y-32286510D01*
X57314500Y-32441153D01*
X57314500Y-32598846D01*
X57345261Y-32753489D01*
X57345264Y-32753501D01*
X57405602Y-32899172D01*
X57405609Y-32899185D01*
X57493210Y-33030288D01*
X57493213Y-33030292D01*
X57604707Y-33141786D01*
X57604711Y-33141789D01*
X57735814Y-33229390D01*
X57735827Y-33229397D01*
X57881498Y-33289735D01*
X57881503Y-33289737D01*
X58036153Y-33320499D01*
X58036156Y-33320500D01*
X58036158Y-33320500D01*
X58193844Y-33320500D01*
X58193845Y-33320499D01*
X58348497Y-33289737D01*
X58494179Y-33229394D01*
X58523620Y-33209721D01*
X58590296Y-33188843D01*
X58657676Y-33207327D01*
X58661392Y-33209714D01*
X58717806Y-33247409D01*
X58717812Y-33247411D01*
X58717813Y-33247412D01*
X58819998Y-33289738D01*
X58863488Y-33307752D01*
X59018138Y-33338514D01*
X59018141Y-33338515D01*
X59018143Y-33338515D01*
X59175829Y-33338515D01*
X59175830Y-33338514D01*
X59330482Y-33307752D01*
X59476164Y-33247409D01*
X59503121Y-33229397D01*
X59607860Y-33159413D01*
X59674538Y-33138535D01*
X59676751Y-33138515D01*
X60252918Y-33138515D01*
X60319957Y-33158200D01*
X60340599Y-33174834D01*
X61124084Y-33958319D01*
X61157569Y-34019642D01*
X61152585Y-34089334D01*
X61110713Y-34145267D01*
X61045249Y-34169684D01*
X61036403Y-34170000D01*
X60888754Y-34170000D01*
X60678872Y-34203242D01*
X60678869Y-34203242D01*
X60476782Y-34268904D01*
X60287439Y-34365380D01*
X60233282Y-34404727D01*
X60233282Y-34404728D01*
X60865591Y-35037037D01*
X60802007Y-35054075D01*
X60687993Y-35119901D01*
X60594901Y-35212993D01*
X60529075Y-35327007D01*
X60512037Y-35390591D01*
X59841818Y-34720372D01*
X59808333Y-34659049D01*
X59805499Y-34632691D01*
X59805499Y-34622129D01*
X59805498Y-34622123D01*
X59805182Y-34619184D01*
X59799091Y-34562517D01*
X59790257Y-34538833D01*
X59748797Y-34427671D01*
X59748793Y-34427664D01*
X59662547Y-34312455D01*
X59662544Y-34312452D01*
X59547335Y-34226206D01*
X59547328Y-34226202D01*
X59412482Y-34175908D01*
X59412483Y-34175908D01*
X59352883Y-34169501D01*
X59352881Y-34169500D01*
X59352873Y-34169500D01*
X59352864Y-34169500D01*
X57557129Y-34169500D01*
X57557123Y-34169501D01*
X57497516Y-34175908D01*
X57362671Y-34226202D01*
X57362664Y-34226206D01*
X57247455Y-34312452D01*
X57247452Y-34312455D01*
X57161206Y-34427664D01*
X57161202Y-34427671D01*
X57119742Y-34538833D01*
X57077871Y-34594767D01*
X57012407Y-34619184D01*
X57003560Y-34619500D01*
X55265154Y-34619500D01*
X55198115Y-34599815D01*
X55177473Y-34583181D01*
X52625129Y-32030837D01*
X52591644Y-31969514D01*
X52596628Y-31899822D01*
X52638500Y-31843889D01*
X52688619Y-31821539D01*
X52693842Y-31820500D01*
X52848497Y-31789737D01*
X52994179Y-31729394D01*
X53125289Y-31641789D01*
X53236789Y-31530289D01*
X53324394Y-31399179D01*
X53384737Y-31253497D01*
X53391339Y-31220309D01*
X53423724Y-31158398D01*
X53484439Y-31123824D01*
X53512956Y-31120500D01*
X58365903Y-31120500D01*
X58432942Y-31140185D01*
G37*
%TD.AperFunction*%
%TA.AperFunction,Conductor*%
G36*
X56983834Y-17100913D02*
G01*
X57039767Y-17142785D01*
X57064184Y-17208249D01*
X57064500Y-17217095D01*
X57064500Y-17917870D01*
X57064501Y-17917876D01*
X57070908Y-17977483D01*
X57121202Y-18112328D01*
X57121206Y-18112335D01*
X57207452Y-18227544D01*
X57207455Y-18227547D01*
X57322664Y-18313793D01*
X57322671Y-18313797D01*
X57457517Y-18364091D01*
X57457516Y-18364091D01*
X57464444Y-18364835D01*
X57517127Y-18370500D01*
X59312872Y-18370499D01*
X59372483Y-18364091D01*
X59507331Y-18313796D01*
X59622546Y-18227546D01*
X59708796Y-18112331D01*
X59759091Y-17977483D01*
X59765500Y-17917873D01*
X59765499Y-17907312D01*
X59785179Y-17840275D01*
X59801818Y-17819626D01*
X60472036Y-17149407D01*
X60489075Y-17212993D01*
X60554901Y-17327007D01*
X60647993Y-17420099D01*
X60762007Y-17485925D01*
X60825589Y-17502962D01*
X60193282Y-18135269D01*
X60193282Y-18135270D01*
X60247449Y-18174624D01*
X60436782Y-18271095D01*
X60638870Y-18336757D01*
X60848754Y-18370000D01*
X60996401Y-18370000D01*
X61063440Y-18389685D01*
X61109195Y-18442489D01*
X61119139Y-18511647D01*
X61090114Y-18575203D01*
X61084082Y-18581681D01*
X56181584Y-23484181D01*
X56120261Y-23517666D01*
X56093903Y-23520500D01*
X55263097Y-23520500D01*
X55196058Y-23500815D01*
X55150303Y-23448011D01*
X55140359Y-23378853D01*
X55169384Y-23315297D01*
X55175416Y-23308819D01*
X55474528Y-23009707D01*
X56648506Y-21835727D01*
X56648511Y-21835724D01*
X56658714Y-21825520D01*
X56658716Y-21825520D01*
X56770520Y-21713716D01*
X56849577Y-21576784D01*
X56890500Y-21424057D01*
X56890500Y-21099765D01*
X56910185Y-21032726D01*
X56911398Y-21030874D01*
X56999390Y-20899185D01*
X56999390Y-20899184D01*
X56999394Y-20899179D01*
X57059737Y-20753497D01*
X57090500Y-20598842D01*
X57090500Y-20441158D01*
X57090500Y-20441155D01*
X57090499Y-20441153D01*
X57077979Y-20378210D01*
X57059737Y-20286503D01*
X57036441Y-20230261D01*
X56999397Y-20140827D01*
X56999390Y-20140814D01*
X56911789Y-20009711D01*
X56911786Y-20009707D01*
X56800292Y-19898213D01*
X56800288Y-19898210D01*
X56669185Y-19810609D01*
X56669172Y-19810602D01*
X56523501Y-19750264D01*
X56523489Y-19750261D01*
X56368845Y-19719500D01*
X56368842Y-19719500D01*
X56211158Y-19719500D01*
X56211155Y-19719500D01*
X56056510Y-19750261D01*
X56056498Y-19750264D01*
X55910827Y-19810602D01*
X55910814Y-19810609D01*
X55779711Y-19898210D01*
X55779707Y-19898213D01*
X55668213Y-20009707D01*
X55668210Y-20009711D01*
X55580609Y-20140814D01*
X55580602Y-20140827D01*
X55520264Y-20286498D01*
X55520261Y-20286510D01*
X55489500Y-20441153D01*
X55489500Y-20598846D01*
X55520261Y-20753489D01*
X55520264Y-20753501D01*
X55580602Y-20899172D01*
X55580609Y-20899184D01*
X55646627Y-20997986D01*
X55667505Y-21064663D01*
X55649021Y-21132043D01*
X55631206Y-21154558D01*
X54100339Y-22685425D01*
X54039016Y-22718910D01*
X54036850Y-22719361D01*
X53881508Y-22750261D01*
X53881498Y-22750264D01*
X53762450Y-22799575D01*
X53692980Y-22807044D01*
X53667546Y-22799575D01*
X53548498Y-22750264D01*
X53548486Y-22750261D01*
X53393842Y-22719500D01*
X53393839Y-22719500D01*
X53236155Y-22719500D01*
X53236152Y-22719500D01*
X53081507Y-22750261D01*
X53081495Y-22750264D01*
X52935824Y-22810602D01*
X52935811Y-22810609D01*
X52804708Y-22898210D01*
X52804704Y-22898213D01*
X52693210Y-23009707D01*
X52693207Y-23009711D01*
X52605606Y-23140814D01*
X52605599Y-23140827D01*
X52545261Y-23286498D01*
X52545258Y-23286510D01*
X52514497Y-23441153D01*
X52514497Y-23598846D01*
X52545258Y-23753489D01*
X52545261Y-23753501D01*
X52605599Y-23899172D01*
X52605606Y-23899185D01*
X52694889Y-24032805D01*
X52715767Y-24099482D01*
X52697283Y-24166863D01*
X52645304Y-24213553D01*
X52615979Y-24223313D01*
X52480505Y-24250261D01*
X52480495Y-24250264D01*
X52386952Y-24289011D01*
X52317483Y-24296480D01*
X52255004Y-24265204D01*
X52219352Y-24205115D01*
X52215500Y-24174450D01*
X52215500Y-21818096D01*
X52235185Y-21751057D01*
X52251814Y-21730420D01*
X56852821Y-17129412D01*
X56914142Y-17095929D01*
X56983834Y-17100913D01*
G37*
%TD.AperFunction*%
%TD*%
M02*
