M48
; DRILL file {KiCad 9.0.7} date 2026-04-03T17:51:43+0500
; FORMAT={-:-/ absolute / metric / decimal}
; #@! TF.CreationDate,2026-04-03T17:51:43+05:00
; #@! TF.GenerationSoftware,Kicad,Pcbnew,9.0.7
; #@! TF.FileFunction,Plated,1,2,PTH
FMAT,2
METRIC
; #@! TA.AperFunction,Plated,PTH,ComponentDrill
T1C0.200
; #@! TA.AperFunction,Plated,PTH,ViaDrill
T2C0.300
; #@! TA.AperFunction,Plated,PTH,ViaDrill
T3C0.400
; #@! TA.AperFunction,Plated,PTH,ComponentDrill
T4C1.000
%
G90
G05
T1
X54.615Y-26.52
X54.615Y-27.52
X54.615Y-28.52
X55.615Y-26.52
X55.615Y-27.52
X55.615Y-28.52
X56.615Y-26.52
X56.615Y-27.52
X56.615Y-28.52
T2
X41.0Y-21.0
X48.991Y-24.816
X49.115Y-28.52
X50.615Y-25.0
X50.615Y-26.535
X51.615Y-28.52
X52.615Y-31.02
X52.714Y-25.02
X53.315Y-23.52
X54.115Y-23.52
X56.29Y-20.52
X57.94Y-20.52
X58.115Y-32.52
X59.097Y-32.538
X61.115Y-20.52
X61.615Y-28.87
X61.615Y-29.67
X63.115Y-31.232
X66.05Y-27.52
X66.05Y-28.926
X66.115Y-32.845
X71.025Y-25.115
X72.615Y-26.02
T3
X46.965Y-21.32
T4
X58.415Y-17.02
X58.455Y-35.52
X60.955Y-17.02
X60.995Y-35.52
X63.495Y-17.02
X63.535Y-35.52
X66.035Y-17.02
X66.075Y-35.52
X68.575Y-17.02
X68.615Y-35.52
X71.115Y-17.02
X71.155Y-35.52
M30
