%TF.GenerationSoftware,KiCad,Pcbnew,9.0.7*%
%TF.CreationDate,2026-04-03T17:51:38+05:00*%
%TF.ProjectId,Esp 01,45737020-3031-42e6-9b69-6361645f7063,rev?*%
%TF.SameCoordinates,Original*%
%TF.FileFunction,Legend,Top*%
%TF.FilePolarity,Positive*%
%FSLAX46Y46*%
G04 Gerber Fmt 4.6, Leading zero omitted, Abs format (unit mm)*
G04 Created by KiCad (PCBNEW 9.0.7) date 2026-04-03 17:51:38*
%MOMM*%
%LPD*%
G01*
G04 APERTURE LIST*
%ADD10C,0.100000*%
%ADD11C,0.150000*%
%ADD12C,0.120000*%
G04 APERTURE END LIST*
D10*
X63375312Y-15872419D02*
X63041979Y-15396228D01*
X62803884Y-15872419D02*
X62803884Y-14872419D01*
X62803884Y-14872419D02*
X63184836Y-14872419D01*
X63184836Y-14872419D02*
X63280074Y-14920038D01*
X63280074Y-14920038D02*
X63327693Y-14967657D01*
X63327693Y-14967657D02*
X63375312Y-15062895D01*
X63375312Y-15062895D02*
X63375312Y-15205752D01*
X63375312Y-15205752D02*
X63327693Y-15300990D01*
X63327693Y-15300990D02*
X63280074Y-15348609D01*
X63280074Y-15348609D02*
X63184836Y-15396228D01*
X63184836Y-15396228D02*
X62803884Y-15396228D01*
X63756265Y-15824800D02*
X63899122Y-15872419D01*
X63899122Y-15872419D02*
X64137217Y-15872419D01*
X64137217Y-15872419D02*
X64232455Y-15824800D01*
X64232455Y-15824800D02*
X64280074Y-15777180D01*
X64280074Y-15777180D02*
X64327693Y-15681942D01*
X64327693Y-15681942D02*
X64327693Y-15586704D01*
X64327693Y-15586704D02*
X64280074Y-15491466D01*
X64280074Y-15491466D02*
X64232455Y-15443847D01*
X64232455Y-15443847D02*
X64137217Y-15396228D01*
X64137217Y-15396228D02*
X63946741Y-15348609D01*
X63946741Y-15348609D02*
X63851503Y-15300990D01*
X63851503Y-15300990D02*
X63803884Y-15253371D01*
X63803884Y-15253371D02*
X63756265Y-15158133D01*
X63756265Y-15158133D02*
X63756265Y-15062895D01*
X63756265Y-15062895D02*
X63803884Y-14967657D01*
X63803884Y-14967657D02*
X63851503Y-14920038D01*
X63851503Y-14920038D02*
X63946741Y-14872419D01*
X63946741Y-14872419D02*
X64184836Y-14872419D01*
X64184836Y-14872419D02*
X64327693Y-14920038D01*
X64613408Y-14872419D02*
X65184836Y-14872419D01*
X64899122Y-15872419D02*
X64899122Y-14872419D01*
X57780074Y-36372419D02*
X57303884Y-36372419D01*
X57303884Y-36372419D02*
X57256265Y-36848609D01*
X57256265Y-36848609D02*
X57303884Y-36800990D01*
X57303884Y-36800990D02*
X57399122Y-36753371D01*
X57399122Y-36753371D02*
X57637217Y-36753371D01*
X57637217Y-36753371D02*
X57732455Y-36800990D01*
X57732455Y-36800990D02*
X57780074Y-36848609D01*
X57780074Y-36848609D02*
X57827693Y-36943847D01*
X57827693Y-36943847D02*
X57827693Y-37181942D01*
X57827693Y-37181942D02*
X57780074Y-37277180D01*
X57780074Y-37277180D02*
X57732455Y-37324800D01*
X57732455Y-37324800D02*
X57637217Y-37372419D01*
X57637217Y-37372419D02*
X57399122Y-37372419D01*
X57399122Y-37372419D02*
X57303884Y-37324800D01*
X57303884Y-37324800D02*
X57256265Y-37277180D01*
X58113408Y-36372419D02*
X58446741Y-37372419D01*
X58446741Y-37372419D02*
X58780074Y-36372419D01*
X68303884Y-37372419D02*
X68303884Y-36372419D01*
X69208645Y-36705752D02*
X69208645Y-37372419D01*
X68970550Y-36324800D02*
X68732455Y-37039085D01*
X68732455Y-37039085D02*
X69351502Y-37039085D01*
X55708646Y-14872419D02*
X56327693Y-14872419D01*
X56327693Y-14872419D02*
X55994360Y-15253371D01*
X55994360Y-15253371D02*
X56137217Y-15253371D01*
X56137217Y-15253371D02*
X56232455Y-15300990D01*
X56232455Y-15300990D02*
X56280074Y-15348609D01*
X56280074Y-15348609D02*
X56327693Y-15443847D01*
X56327693Y-15443847D02*
X56327693Y-15681942D01*
X56327693Y-15681942D02*
X56280074Y-15777180D01*
X56280074Y-15777180D02*
X56232455Y-15824800D01*
X56232455Y-15824800D02*
X56137217Y-15872419D01*
X56137217Y-15872419D02*
X55851503Y-15872419D01*
X55851503Y-15872419D02*
X55756265Y-15824800D01*
X55756265Y-15824800D02*
X55708646Y-15777180D01*
X56756265Y-15777180D02*
X56803884Y-15824800D01*
X56803884Y-15824800D02*
X56756265Y-15872419D01*
X56756265Y-15872419D02*
X56708646Y-15824800D01*
X56708646Y-15824800D02*
X56756265Y-15777180D01*
X56756265Y-15777180D02*
X56756265Y-15872419D01*
X57137217Y-14872419D02*
X57756264Y-14872419D01*
X57756264Y-14872419D02*
X57422931Y-15253371D01*
X57422931Y-15253371D02*
X57565788Y-15253371D01*
X57565788Y-15253371D02*
X57661026Y-15300990D01*
X57661026Y-15300990D02*
X57708645Y-15348609D01*
X57708645Y-15348609D02*
X57756264Y-15443847D01*
X57756264Y-15443847D02*
X57756264Y-15681942D01*
X57756264Y-15681942D02*
X57708645Y-15777180D01*
X57708645Y-15777180D02*
X57661026Y-15824800D01*
X57661026Y-15824800D02*
X57565788Y-15872419D01*
X57565788Y-15872419D02*
X57280074Y-15872419D01*
X57280074Y-15872419D02*
X57184836Y-15824800D01*
X57184836Y-15824800D02*
X57137217Y-15777180D01*
X58089598Y-15205752D02*
X58327693Y-15872419D01*
X58327693Y-15872419D02*
X58565788Y-15205752D01*
X59827693Y-14920038D02*
X59732455Y-14872419D01*
X59732455Y-14872419D02*
X59589598Y-14872419D01*
X59589598Y-14872419D02*
X59446741Y-14920038D01*
X59446741Y-14920038D02*
X59351503Y-15015276D01*
X59351503Y-15015276D02*
X59303884Y-15110514D01*
X59303884Y-15110514D02*
X59256265Y-15300990D01*
X59256265Y-15300990D02*
X59256265Y-15443847D01*
X59256265Y-15443847D02*
X59303884Y-15634323D01*
X59303884Y-15634323D02*
X59351503Y-15729561D01*
X59351503Y-15729561D02*
X59446741Y-15824800D01*
X59446741Y-15824800D02*
X59589598Y-15872419D01*
X59589598Y-15872419D02*
X59684836Y-15872419D01*
X59684836Y-15872419D02*
X59827693Y-15824800D01*
X59827693Y-15824800D02*
X59875312Y-15777180D01*
X59875312Y-15777180D02*
X59875312Y-15443847D01*
X59875312Y-15443847D02*
X59684836Y-15443847D01*
X60303884Y-15872419D02*
X60303884Y-14872419D01*
X60303884Y-14872419D02*
X60875312Y-15872419D01*
X60875312Y-15872419D02*
X60875312Y-14872419D01*
X61351503Y-15872419D02*
X61351503Y-14872419D01*
X61351503Y-14872419D02*
X61589598Y-14872419D01*
X61589598Y-14872419D02*
X61732455Y-14920038D01*
X61732455Y-14920038D02*
X61827693Y-15015276D01*
X61827693Y-15015276D02*
X61875312Y-15110514D01*
X61875312Y-15110514D02*
X61922931Y-15300990D01*
X61922931Y-15300990D02*
X61922931Y-15443847D01*
X61922931Y-15443847D02*
X61875312Y-15634323D01*
X61875312Y-15634323D02*
X61827693Y-15729561D01*
X61827693Y-15729561D02*
X61732455Y-15824800D01*
X61732455Y-15824800D02*
X61589598Y-15872419D01*
X61589598Y-15872419D02*
X61351503Y-15872419D01*
X70875312Y-15872419D02*
X70541979Y-15396228D01*
X70303884Y-15872419D02*
X70303884Y-14872419D01*
X70303884Y-14872419D02*
X70684836Y-14872419D01*
X70684836Y-14872419D02*
X70780074Y-14920038D01*
X70780074Y-14920038D02*
X70827693Y-14967657D01*
X70827693Y-14967657D02*
X70875312Y-15062895D01*
X70875312Y-15062895D02*
X70875312Y-15205752D01*
X70875312Y-15205752D02*
X70827693Y-15300990D01*
X70827693Y-15300990D02*
X70780074Y-15348609D01*
X70780074Y-15348609D02*
X70684836Y-15396228D01*
X70684836Y-15396228D02*
X70303884Y-15396228D01*
X71208646Y-14872419D02*
X71875312Y-15872419D01*
X71875312Y-14872419D02*
X71208646Y-15872419D01*
X65803884Y-37372419D02*
X65803884Y-36372419D01*
X66232455Y-36467657D02*
X66280074Y-36420038D01*
X66280074Y-36420038D02*
X66375312Y-36372419D01*
X66375312Y-36372419D02*
X66613407Y-36372419D01*
X66613407Y-36372419D02*
X66708645Y-36420038D01*
X66708645Y-36420038D02*
X66756264Y-36467657D01*
X66756264Y-36467657D02*
X66803883Y-36562895D01*
X66803883Y-36562895D02*
X66803883Y-36658133D01*
X66803883Y-36658133D02*
X66756264Y-36800990D01*
X66756264Y-36800990D02*
X66184836Y-37372419D01*
X66184836Y-37372419D02*
X66803883Y-37372419D01*
X68161027Y-14872419D02*
X68732455Y-14872419D01*
X68446741Y-15872419D02*
X68446741Y-14872419D01*
X68970551Y-14872419D02*
X69637217Y-15872419D01*
X69637217Y-14872419D02*
X68970551Y-15872419D01*
X65803884Y-15348609D02*
X66137217Y-15348609D01*
X66280074Y-15872419D02*
X65803884Y-15872419D01*
X65803884Y-15872419D02*
X65803884Y-14872419D01*
X65803884Y-14872419D02*
X66280074Y-14872419D01*
X66708646Y-15872419D02*
X66708646Y-14872419D01*
X66708646Y-14872419D02*
X67280074Y-15872419D01*
X67280074Y-15872419D02*
X67280074Y-14872419D01*
X63303884Y-37372419D02*
X63303884Y-36372419D01*
X63970550Y-36372419D02*
X64065788Y-36372419D01*
X64065788Y-36372419D02*
X64161026Y-36420038D01*
X64161026Y-36420038D02*
X64208645Y-36467657D01*
X64208645Y-36467657D02*
X64256264Y-36562895D01*
X64256264Y-36562895D02*
X64303883Y-36753371D01*
X64303883Y-36753371D02*
X64303883Y-36991466D01*
X64303883Y-36991466D02*
X64256264Y-37181942D01*
X64256264Y-37181942D02*
X64208645Y-37277180D01*
X64208645Y-37277180D02*
X64161026Y-37324800D01*
X64161026Y-37324800D02*
X64065788Y-37372419D01*
X64065788Y-37372419D02*
X63970550Y-37372419D01*
X63970550Y-37372419D02*
X63875312Y-37324800D01*
X63875312Y-37324800D02*
X63827693Y-37277180D01*
X63827693Y-37277180D02*
X63780074Y-37181942D01*
X63780074Y-37181942D02*
X63732455Y-36991466D01*
X63732455Y-36991466D02*
X63732455Y-36753371D01*
X63732455Y-36753371D02*
X63780074Y-36562895D01*
X63780074Y-36562895D02*
X63827693Y-36467657D01*
X63827693Y-36467657D02*
X63875312Y-36420038D01*
X63875312Y-36420038D02*
X63970550Y-36372419D01*
X60327693Y-36420038D02*
X60232455Y-36372419D01*
X60232455Y-36372419D02*
X60089598Y-36372419D01*
X60089598Y-36372419D02*
X59946741Y-36420038D01*
X59946741Y-36420038D02*
X59851503Y-36515276D01*
X59851503Y-36515276D02*
X59803884Y-36610514D01*
X59803884Y-36610514D02*
X59756265Y-36800990D01*
X59756265Y-36800990D02*
X59756265Y-36943847D01*
X59756265Y-36943847D02*
X59803884Y-37134323D01*
X59803884Y-37134323D02*
X59851503Y-37229561D01*
X59851503Y-37229561D02*
X59946741Y-37324800D01*
X59946741Y-37324800D02*
X60089598Y-37372419D01*
X60089598Y-37372419D02*
X60184836Y-37372419D01*
X60184836Y-37372419D02*
X60327693Y-37324800D01*
X60327693Y-37324800D02*
X60375312Y-37277180D01*
X60375312Y-37277180D02*
X60375312Y-36943847D01*
X60375312Y-36943847D02*
X60184836Y-36943847D01*
X60803884Y-37372419D02*
X60803884Y-36372419D01*
X60803884Y-36372419D02*
X61375312Y-37372419D01*
X61375312Y-37372419D02*
X61375312Y-36372419D01*
X61851503Y-37372419D02*
X61851503Y-36372419D01*
X61851503Y-36372419D02*
X62089598Y-36372419D01*
X62089598Y-36372419D02*
X62232455Y-36420038D01*
X62232455Y-36420038D02*
X62327693Y-36515276D01*
X62327693Y-36515276D02*
X62375312Y-36610514D01*
X62375312Y-36610514D02*
X62422931Y-36800990D01*
X62422931Y-36800990D02*
X62422931Y-36943847D01*
X62422931Y-36943847D02*
X62375312Y-37134323D01*
X62375312Y-37134323D02*
X62327693Y-37229561D01*
X62327693Y-37229561D02*
X62232455Y-37324800D01*
X62232455Y-37324800D02*
X62089598Y-37372419D01*
X62089598Y-37372419D02*
X61851503Y-37372419D01*
X70803884Y-37372419D02*
X70803884Y-36372419D01*
X71756264Y-36372419D02*
X71280074Y-36372419D01*
X71280074Y-36372419D02*
X71232455Y-36848609D01*
X71232455Y-36848609D02*
X71280074Y-36800990D01*
X71280074Y-36800990D02*
X71375312Y-36753371D01*
X71375312Y-36753371D02*
X71613407Y-36753371D01*
X71613407Y-36753371D02*
X71708645Y-36800990D01*
X71708645Y-36800990D02*
X71756264Y-36848609D01*
X71756264Y-36848609D02*
X71803883Y-36943847D01*
X71803883Y-36943847D02*
X71803883Y-37181942D01*
X71803883Y-37181942D02*
X71756264Y-37277180D01*
X71756264Y-37277180D02*
X71708645Y-37324800D01*
X71708645Y-37324800D02*
X71613407Y-37372419D01*
X71613407Y-37372419D02*
X71375312Y-37372419D01*
X71375312Y-37372419D02*
X71280074Y-37324800D01*
X71280074Y-37324800D02*
X71232455Y-37277180D01*
D11*
X64999819Y-32758094D02*
X63999819Y-32758094D01*
X63999819Y-32758094D02*
X63999819Y-32519999D01*
X63999819Y-32519999D02*
X64047438Y-32377142D01*
X64047438Y-32377142D02*
X64142676Y-32281904D01*
X64142676Y-32281904D02*
X64237914Y-32234285D01*
X64237914Y-32234285D02*
X64428390Y-32186666D01*
X64428390Y-32186666D02*
X64571247Y-32186666D01*
X64571247Y-32186666D02*
X64761723Y-32234285D01*
X64761723Y-32234285D02*
X64856961Y-32281904D01*
X64856961Y-32281904D02*
X64952200Y-32377142D01*
X64952200Y-32377142D02*
X64999819Y-32519999D01*
X64999819Y-32519999D02*
X64999819Y-32758094D01*
X64095057Y-31805713D02*
X64047438Y-31758094D01*
X64047438Y-31758094D02*
X63999819Y-31662856D01*
X63999819Y-31662856D02*
X63999819Y-31424761D01*
X63999819Y-31424761D02*
X64047438Y-31329523D01*
X64047438Y-31329523D02*
X64095057Y-31281904D01*
X64095057Y-31281904D02*
X64190295Y-31234285D01*
X64190295Y-31234285D02*
X64285533Y-31234285D01*
X64285533Y-31234285D02*
X64428390Y-31281904D01*
X64428390Y-31281904D02*
X64999819Y-31853332D01*
X64999819Y-31853332D02*
X64999819Y-31234285D01*
X56948333Y-22404819D02*
X56615000Y-21928628D01*
X56376905Y-22404819D02*
X56376905Y-21404819D01*
X56376905Y-21404819D02*
X56757857Y-21404819D01*
X56757857Y-21404819D02*
X56853095Y-21452438D01*
X56853095Y-21452438D02*
X56900714Y-21500057D01*
X56900714Y-21500057D02*
X56948333Y-21595295D01*
X56948333Y-21595295D02*
X56948333Y-21738152D01*
X56948333Y-21738152D02*
X56900714Y-21833390D01*
X56900714Y-21833390D02*
X56853095Y-21881009D01*
X56853095Y-21881009D02*
X56757857Y-21928628D01*
X56757857Y-21928628D02*
X56376905Y-21928628D01*
X57281667Y-21404819D02*
X57900714Y-21404819D01*
X57900714Y-21404819D02*
X57567381Y-21785771D01*
X57567381Y-21785771D02*
X57710238Y-21785771D01*
X57710238Y-21785771D02*
X57805476Y-21833390D01*
X57805476Y-21833390D02*
X57853095Y-21881009D01*
X57853095Y-21881009D02*
X57900714Y-21976247D01*
X57900714Y-21976247D02*
X57900714Y-22214342D01*
X57900714Y-22214342D02*
X57853095Y-22309580D01*
X57853095Y-22309580D02*
X57805476Y-22357200D01*
X57805476Y-22357200D02*
X57710238Y-22404819D01*
X57710238Y-22404819D02*
X57424524Y-22404819D01*
X57424524Y-22404819D02*
X57329286Y-22357200D01*
X57329286Y-22357200D02*
X57281667Y-22309580D01*
X43353333Y-35199580D02*
X43305714Y-35247200D01*
X43305714Y-35247200D02*
X43162857Y-35294819D01*
X43162857Y-35294819D02*
X43067619Y-35294819D01*
X43067619Y-35294819D02*
X42924762Y-35247200D01*
X42924762Y-35247200D02*
X42829524Y-35151961D01*
X42829524Y-35151961D02*
X42781905Y-35056723D01*
X42781905Y-35056723D02*
X42734286Y-34866247D01*
X42734286Y-34866247D02*
X42734286Y-34723390D01*
X42734286Y-34723390D02*
X42781905Y-34532914D01*
X42781905Y-34532914D02*
X42829524Y-34437676D01*
X42829524Y-34437676D02*
X42924762Y-34342438D01*
X42924762Y-34342438D02*
X43067619Y-34294819D01*
X43067619Y-34294819D02*
X43162857Y-34294819D01*
X43162857Y-34294819D02*
X43305714Y-34342438D01*
X43305714Y-34342438D02*
X43353333Y-34390057D01*
X43734286Y-34390057D02*
X43781905Y-34342438D01*
X43781905Y-34342438D02*
X43877143Y-34294819D01*
X43877143Y-34294819D02*
X44115238Y-34294819D01*
X44115238Y-34294819D02*
X44210476Y-34342438D01*
X44210476Y-34342438D02*
X44258095Y-34390057D01*
X44258095Y-34390057D02*
X44305714Y-34485295D01*
X44305714Y-34485295D02*
X44305714Y-34580533D01*
X44305714Y-34580533D02*
X44258095Y-34723390D01*
X44258095Y-34723390D02*
X43686667Y-35294819D01*
X43686667Y-35294819D02*
X44305714Y-35294819D01*
X69333333Y-23954819D02*
X69000000Y-23478628D01*
X68761905Y-23954819D02*
X68761905Y-22954819D01*
X68761905Y-22954819D02*
X69142857Y-22954819D01*
X69142857Y-22954819D02*
X69238095Y-23002438D01*
X69238095Y-23002438D02*
X69285714Y-23050057D01*
X69285714Y-23050057D02*
X69333333Y-23145295D01*
X69333333Y-23145295D02*
X69333333Y-23288152D01*
X69333333Y-23288152D02*
X69285714Y-23383390D01*
X69285714Y-23383390D02*
X69238095Y-23431009D01*
X69238095Y-23431009D02*
X69142857Y-23478628D01*
X69142857Y-23478628D02*
X68761905Y-23478628D01*
X69714286Y-23050057D02*
X69761905Y-23002438D01*
X69761905Y-23002438D02*
X69857143Y-22954819D01*
X69857143Y-22954819D02*
X70095238Y-22954819D01*
X70095238Y-22954819D02*
X70190476Y-23002438D01*
X70190476Y-23002438D02*
X70238095Y-23050057D01*
X70238095Y-23050057D02*
X70285714Y-23145295D01*
X70285714Y-23145295D02*
X70285714Y-23240533D01*
X70285714Y-23240533D02*
X70238095Y-23383390D01*
X70238095Y-23383390D02*
X69666667Y-23954819D01*
X69666667Y-23954819D02*
X70285714Y-23954819D01*
X52239819Y-27186666D02*
X52239819Y-27662856D01*
X52239819Y-27662856D02*
X51239819Y-27662856D01*
X51335057Y-26900951D02*
X51287438Y-26853332D01*
X51287438Y-26853332D02*
X51239819Y-26758094D01*
X51239819Y-26758094D02*
X51239819Y-26519999D01*
X51239819Y-26519999D02*
X51287438Y-26424761D01*
X51287438Y-26424761D02*
X51335057Y-26377142D01*
X51335057Y-26377142D02*
X51430295Y-26329523D01*
X51430295Y-26329523D02*
X51525533Y-26329523D01*
X51525533Y-26329523D02*
X51668390Y-26377142D01*
X51668390Y-26377142D02*
X52239819Y-26948570D01*
X52239819Y-26948570D02*
X52239819Y-26329523D01*
X48314580Y-27186666D02*
X48362200Y-27234285D01*
X48362200Y-27234285D02*
X48409819Y-27377142D01*
X48409819Y-27377142D02*
X48409819Y-27472380D01*
X48409819Y-27472380D02*
X48362200Y-27615237D01*
X48362200Y-27615237D02*
X48266961Y-27710475D01*
X48266961Y-27710475D02*
X48171723Y-27758094D01*
X48171723Y-27758094D02*
X47981247Y-27805713D01*
X47981247Y-27805713D02*
X47838390Y-27805713D01*
X47838390Y-27805713D02*
X47647914Y-27758094D01*
X47647914Y-27758094D02*
X47552676Y-27710475D01*
X47552676Y-27710475D02*
X47457438Y-27615237D01*
X47457438Y-27615237D02*
X47409819Y-27472380D01*
X47409819Y-27472380D02*
X47409819Y-27377142D01*
X47409819Y-27377142D02*
X47457438Y-27234285D01*
X47457438Y-27234285D02*
X47505057Y-27186666D01*
X47409819Y-26281904D02*
X47409819Y-26758094D01*
X47409819Y-26758094D02*
X47886009Y-26805713D01*
X47886009Y-26805713D02*
X47838390Y-26758094D01*
X47838390Y-26758094D02*
X47790771Y-26662856D01*
X47790771Y-26662856D02*
X47790771Y-26424761D01*
X47790771Y-26424761D02*
X47838390Y-26329523D01*
X47838390Y-26329523D02*
X47886009Y-26281904D01*
X47886009Y-26281904D02*
X47981247Y-26234285D01*
X47981247Y-26234285D02*
X48219342Y-26234285D01*
X48219342Y-26234285D02*
X48314580Y-26281904D01*
X48314580Y-26281904D02*
X48362200Y-26329523D01*
X48362200Y-26329523D02*
X48409819Y-26424761D01*
X48409819Y-26424761D02*
X48409819Y-26662856D01*
X48409819Y-26662856D02*
X48362200Y-26758094D01*
X48362200Y-26758094D02*
X48314580Y-26805713D01*
X60314580Y-22443666D02*
X60362200Y-22491285D01*
X60362200Y-22491285D02*
X60409819Y-22634142D01*
X60409819Y-22634142D02*
X60409819Y-22729380D01*
X60409819Y-22729380D02*
X60362200Y-22872237D01*
X60362200Y-22872237D02*
X60266961Y-22967475D01*
X60266961Y-22967475D02*
X60171723Y-23015094D01*
X60171723Y-23015094D02*
X59981247Y-23062713D01*
X59981247Y-23062713D02*
X59838390Y-23062713D01*
X59838390Y-23062713D02*
X59647914Y-23015094D01*
X59647914Y-23015094D02*
X59552676Y-22967475D01*
X59552676Y-22967475D02*
X59457438Y-22872237D01*
X59457438Y-22872237D02*
X59409819Y-22729380D01*
X59409819Y-22729380D02*
X59409819Y-22634142D01*
X59409819Y-22634142D02*
X59457438Y-22491285D01*
X59457438Y-22491285D02*
X59505057Y-22443666D01*
X59743152Y-21586523D02*
X60409819Y-21586523D01*
X59362200Y-21824618D02*
X60076485Y-22062713D01*
X60076485Y-22062713D02*
X60076485Y-21443666D01*
X48954819Y-30166666D02*
X48478628Y-30499999D01*
X48954819Y-30738094D02*
X47954819Y-30738094D01*
X47954819Y-30738094D02*
X47954819Y-30357142D01*
X47954819Y-30357142D02*
X48002438Y-30261904D01*
X48002438Y-30261904D02*
X48050057Y-30214285D01*
X48050057Y-30214285D02*
X48145295Y-30166666D01*
X48145295Y-30166666D02*
X48288152Y-30166666D01*
X48288152Y-30166666D02*
X48383390Y-30214285D01*
X48383390Y-30214285D02*
X48431009Y-30261904D01*
X48431009Y-30261904D02*
X48478628Y-30357142D01*
X48478628Y-30357142D02*
X48478628Y-30738094D01*
X47954819Y-29261904D02*
X47954819Y-29738094D01*
X47954819Y-29738094D02*
X48431009Y-29785713D01*
X48431009Y-29785713D02*
X48383390Y-29738094D01*
X48383390Y-29738094D02*
X48335771Y-29642856D01*
X48335771Y-29642856D02*
X48335771Y-29404761D01*
X48335771Y-29404761D02*
X48383390Y-29309523D01*
X48383390Y-29309523D02*
X48431009Y-29261904D01*
X48431009Y-29261904D02*
X48526247Y-29214285D01*
X48526247Y-29214285D02*
X48764342Y-29214285D01*
X48764342Y-29214285D02*
X48859580Y-29261904D01*
X48859580Y-29261904D02*
X48907200Y-29309523D01*
X48907200Y-29309523D02*
X48954819Y-29404761D01*
X48954819Y-29404761D02*
X48954819Y-29642856D01*
X48954819Y-29642856D02*
X48907200Y-29738094D01*
X48907200Y-29738094D02*
X48859580Y-29785713D01*
X43968333Y-23719580D02*
X43920714Y-23767200D01*
X43920714Y-23767200D02*
X43777857Y-23814819D01*
X43777857Y-23814819D02*
X43682619Y-23814819D01*
X43682619Y-23814819D02*
X43539762Y-23767200D01*
X43539762Y-23767200D02*
X43444524Y-23671961D01*
X43444524Y-23671961D02*
X43396905Y-23576723D01*
X43396905Y-23576723D02*
X43349286Y-23386247D01*
X43349286Y-23386247D02*
X43349286Y-23243390D01*
X43349286Y-23243390D02*
X43396905Y-23052914D01*
X43396905Y-23052914D02*
X43444524Y-22957676D01*
X43444524Y-22957676D02*
X43539762Y-22862438D01*
X43539762Y-22862438D02*
X43682619Y-22814819D01*
X43682619Y-22814819D02*
X43777857Y-22814819D01*
X43777857Y-22814819D02*
X43920714Y-22862438D01*
X43920714Y-22862438D02*
X43968333Y-22910057D01*
X44444524Y-23814819D02*
X44635000Y-23814819D01*
X44635000Y-23814819D02*
X44730238Y-23767200D01*
X44730238Y-23767200D02*
X44777857Y-23719580D01*
X44777857Y-23719580D02*
X44873095Y-23576723D01*
X44873095Y-23576723D02*
X44920714Y-23386247D01*
X44920714Y-23386247D02*
X44920714Y-23005295D01*
X44920714Y-23005295D02*
X44873095Y-22910057D01*
X44873095Y-22910057D02*
X44825476Y-22862438D01*
X44825476Y-22862438D02*
X44730238Y-22814819D01*
X44730238Y-22814819D02*
X44539762Y-22814819D01*
X44539762Y-22814819D02*
X44444524Y-22862438D01*
X44444524Y-22862438D02*
X44396905Y-22910057D01*
X44396905Y-22910057D02*
X44349286Y-23005295D01*
X44349286Y-23005295D02*
X44349286Y-23243390D01*
X44349286Y-23243390D02*
X44396905Y-23338628D01*
X44396905Y-23338628D02*
X44444524Y-23386247D01*
X44444524Y-23386247D02*
X44539762Y-23433866D01*
X44539762Y-23433866D02*
X44730238Y-23433866D01*
X44730238Y-23433866D02*
X44825476Y-23386247D01*
X44825476Y-23386247D02*
X44873095Y-23338628D01*
X44873095Y-23338628D02*
X44920714Y-23243390D01*
X67023809Y-22478628D02*
X67023809Y-22954819D01*
X66690476Y-21954819D02*
X67023809Y-22478628D01*
X67023809Y-22478628D02*
X67357142Y-21954819D01*
X68214285Y-22954819D02*
X67642857Y-22954819D01*
X67928571Y-22954819D02*
X67928571Y-21954819D01*
X67928571Y-21954819D02*
X67833333Y-22097676D01*
X67833333Y-22097676D02*
X67738095Y-22192914D01*
X67738095Y-22192914D02*
X67642857Y-22240533D01*
X60359580Y-20206666D02*
X60407200Y-20254285D01*
X60407200Y-20254285D02*
X60454819Y-20397142D01*
X60454819Y-20397142D02*
X60454819Y-20492380D01*
X60454819Y-20492380D02*
X60407200Y-20635237D01*
X60407200Y-20635237D02*
X60311961Y-20730475D01*
X60311961Y-20730475D02*
X60216723Y-20778094D01*
X60216723Y-20778094D02*
X60026247Y-20825713D01*
X60026247Y-20825713D02*
X59883390Y-20825713D01*
X59883390Y-20825713D02*
X59692914Y-20778094D01*
X59692914Y-20778094D02*
X59597676Y-20730475D01*
X59597676Y-20730475D02*
X59502438Y-20635237D01*
X59502438Y-20635237D02*
X59454819Y-20492380D01*
X59454819Y-20492380D02*
X59454819Y-20397142D01*
X59454819Y-20397142D02*
X59502438Y-20254285D01*
X59502438Y-20254285D02*
X59550057Y-20206666D01*
X59454819Y-19873332D02*
X59454819Y-19254285D01*
X59454819Y-19254285D02*
X59835771Y-19587618D01*
X59835771Y-19587618D02*
X59835771Y-19444761D01*
X59835771Y-19444761D02*
X59883390Y-19349523D01*
X59883390Y-19349523D02*
X59931009Y-19301904D01*
X59931009Y-19301904D02*
X60026247Y-19254285D01*
X60026247Y-19254285D02*
X60264342Y-19254285D01*
X60264342Y-19254285D02*
X60359580Y-19301904D01*
X60359580Y-19301904D02*
X60407200Y-19349523D01*
X60407200Y-19349523D02*
X60454819Y-19444761D01*
X60454819Y-19444761D02*
X60454819Y-19730475D01*
X60454819Y-19730475D02*
X60407200Y-19825713D01*
X60407200Y-19825713D02*
X60359580Y-19873332D01*
X43492142Y-16219580D02*
X43444523Y-16267200D01*
X43444523Y-16267200D02*
X43301666Y-16314819D01*
X43301666Y-16314819D02*
X43206428Y-16314819D01*
X43206428Y-16314819D02*
X43063571Y-16267200D01*
X43063571Y-16267200D02*
X42968333Y-16171961D01*
X42968333Y-16171961D02*
X42920714Y-16076723D01*
X42920714Y-16076723D02*
X42873095Y-15886247D01*
X42873095Y-15886247D02*
X42873095Y-15743390D01*
X42873095Y-15743390D02*
X42920714Y-15552914D01*
X42920714Y-15552914D02*
X42968333Y-15457676D01*
X42968333Y-15457676D02*
X43063571Y-15362438D01*
X43063571Y-15362438D02*
X43206428Y-15314819D01*
X43206428Y-15314819D02*
X43301666Y-15314819D01*
X43301666Y-15314819D02*
X43444523Y-15362438D01*
X43444523Y-15362438D02*
X43492142Y-15410057D01*
X44444523Y-16314819D02*
X43873095Y-16314819D01*
X44158809Y-16314819D02*
X44158809Y-15314819D01*
X44158809Y-15314819D02*
X44063571Y-15457676D01*
X44063571Y-15457676D02*
X43968333Y-15552914D01*
X43968333Y-15552914D02*
X43873095Y-15600533D01*
X45396904Y-16314819D02*
X44825476Y-16314819D01*
X45111190Y-16314819D02*
X45111190Y-15314819D01*
X45111190Y-15314819D02*
X45015952Y-15457676D01*
X45015952Y-15457676D02*
X44920714Y-15552914D01*
X44920714Y-15552914D02*
X44825476Y-15600533D01*
X56999819Y-32686666D02*
X56523628Y-33019999D01*
X56999819Y-33258094D02*
X55999819Y-33258094D01*
X55999819Y-33258094D02*
X55999819Y-32877142D01*
X55999819Y-32877142D02*
X56047438Y-32781904D01*
X56047438Y-32781904D02*
X56095057Y-32734285D01*
X56095057Y-32734285D02*
X56190295Y-32686666D01*
X56190295Y-32686666D02*
X56333152Y-32686666D01*
X56333152Y-32686666D02*
X56428390Y-32734285D01*
X56428390Y-32734285D02*
X56476009Y-32781904D01*
X56476009Y-32781904D02*
X56523628Y-32877142D01*
X56523628Y-32877142D02*
X56523628Y-33258094D01*
X56333152Y-31829523D02*
X56999819Y-31829523D01*
X55952200Y-32067618D02*
X56666485Y-32305713D01*
X56666485Y-32305713D02*
X56666485Y-31686666D01*
X43353333Y-32284819D02*
X42877143Y-32284819D01*
X42877143Y-32284819D02*
X42877143Y-31284819D01*
X44210476Y-32284819D02*
X43639048Y-32284819D01*
X43924762Y-32284819D02*
X43924762Y-31284819D01*
X43924762Y-31284819D02*
X43829524Y-31427676D01*
X43829524Y-31427676D02*
X43734286Y-31522914D01*
X43734286Y-31522914D02*
X43639048Y-31570533D01*
X61623333Y-26044819D02*
X61290000Y-25568628D01*
X61051905Y-26044819D02*
X61051905Y-25044819D01*
X61051905Y-25044819D02*
X61432857Y-25044819D01*
X61432857Y-25044819D02*
X61528095Y-25092438D01*
X61528095Y-25092438D02*
X61575714Y-25140057D01*
X61575714Y-25140057D02*
X61623333Y-25235295D01*
X61623333Y-25235295D02*
X61623333Y-25378152D01*
X61623333Y-25378152D02*
X61575714Y-25473390D01*
X61575714Y-25473390D02*
X61528095Y-25521009D01*
X61528095Y-25521009D02*
X61432857Y-25568628D01*
X61432857Y-25568628D02*
X61051905Y-25568628D01*
X62575714Y-26044819D02*
X62004286Y-26044819D01*
X62290000Y-26044819D02*
X62290000Y-25044819D01*
X62290000Y-25044819D02*
X62194762Y-25187676D01*
X62194762Y-25187676D02*
X62099524Y-25282914D01*
X62099524Y-25282914D02*
X62004286Y-25330533D01*
X45852319Y-32238094D02*
X44852319Y-32238094D01*
X44852319Y-32238094D02*
X44852319Y-31999999D01*
X44852319Y-31999999D02*
X44899938Y-31857142D01*
X44899938Y-31857142D02*
X44995176Y-31761904D01*
X44995176Y-31761904D02*
X45090414Y-31714285D01*
X45090414Y-31714285D02*
X45280890Y-31666666D01*
X45280890Y-31666666D02*
X45423747Y-31666666D01*
X45423747Y-31666666D02*
X45614223Y-31714285D01*
X45614223Y-31714285D02*
X45709461Y-31761904D01*
X45709461Y-31761904D02*
X45804700Y-31857142D01*
X45804700Y-31857142D02*
X45852319Y-31999999D01*
X45852319Y-31999999D02*
X45852319Y-32238094D01*
X45852319Y-30714285D02*
X45852319Y-31285713D01*
X45852319Y-30999999D02*
X44852319Y-30999999D01*
X44852319Y-30999999D02*
X44995176Y-31095237D01*
X44995176Y-31095237D02*
X45090414Y-31190475D01*
X45090414Y-31190475D02*
X45138033Y-31285713D01*
X70454819Y-32186666D02*
X69978628Y-32519999D01*
X70454819Y-32758094D02*
X69454819Y-32758094D01*
X69454819Y-32758094D02*
X69454819Y-32377142D01*
X69454819Y-32377142D02*
X69502438Y-32281904D01*
X69502438Y-32281904D02*
X69550057Y-32234285D01*
X69550057Y-32234285D02*
X69645295Y-32186666D01*
X69645295Y-32186666D02*
X69788152Y-32186666D01*
X69788152Y-32186666D02*
X69883390Y-32234285D01*
X69883390Y-32234285D02*
X69931009Y-32281904D01*
X69931009Y-32281904D02*
X69978628Y-32377142D01*
X69978628Y-32377142D02*
X69978628Y-32758094D01*
X69454819Y-31329523D02*
X69454819Y-31519999D01*
X69454819Y-31519999D02*
X69502438Y-31615237D01*
X69502438Y-31615237D02*
X69550057Y-31662856D01*
X69550057Y-31662856D02*
X69692914Y-31758094D01*
X69692914Y-31758094D02*
X69883390Y-31805713D01*
X69883390Y-31805713D02*
X70264342Y-31805713D01*
X70264342Y-31805713D02*
X70359580Y-31758094D01*
X70359580Y-31758094D02*
X70407200Y-31710475D01*
X70407200Y-31710475D02*
X70454819Y-31615237D01*
X70454819Y-31615237D02*
X70454819Y-31424761D01*
X70454819Y-31424761D02*
X70407200Y-31329523D01*
X70407200Y-31329523D02*
X70359580Y-31281904D01*
X70359580Y-31281904D02*
X70264342Y-31234285D01*
X70264342Y-31234285D02*
X70026247Y-31234285D01*
X70026247Y-31234285D02*
X69931009Y-31281904D01*
X69931009Y-31281904D02*
X69883390Y-31329523D01*
X69883390Y-31329523D02*
X69835771Y-31424761D01*
X69835771Y-31424761D02*
X69835771Y-31615237D01*
X69835771Y-31615237D02*
X69883390Y-31710475D01*
X69883390Y-31710475D02*
X69931009Y-31758094D01*
X69931009Y-31758094D02*
X70026247Y-31805713D01*
X49814580Y-25166666D02*
X49862200Y-25214285D01*
X49862200Y-25214285D02*
X49909819Y-25357142D01*
X49909819Y-25357142D02*
X49909819Y-25452380D01*
X49909819Y-25452380D02*
X49862200Y-25595237D01*
X49862200Y-25595237D02*
X49766961Y-25690475D01*
X49766961Y-25690475D02*
X49671723Y-25738094D01*
X49671723Y-25738094D02*
X49481247Y-25785713D01*
X49481247Y-25785713D02*
X49338390Y-25785713D01*
X49338390Y-25785713D02*
X49147914Y-25738094D01*
X49147914Y-25738094D02*
X49052676Y-25690475D01*
X49052676Y-25690475D02*
X48957438Y-25595237D01*
X48957438Y-25595237D02*
X48909819Y-25452380D01*
X48909819Y-25452380D02*
X48909819Y-25357142D01*
X48909819Y-25357142D02*
X48957438Y-25214285D01*
X48957438Y-25214285D02*
X49005057Y-25166666D01*
X49909819Y-24214285D02*
X49909819Y-24785713D01*
X49909819Y-24499999D02*
X48909819Y-24499999D01*
X48909819Y-24499999D02*
X49052676Y-24595237D01*
X49052676Y-24595237D02*
X49147914Y-24690475D01*
X49147914Y-24690475D02*
X49195533Y-24785713D01*
X67378333Y-30954819D02*
X67045000Y-30478628D01*
X66806905Y-30954819D02*
X66806905Y-29954819D01*
X66806905Y-29954819D02*
X67187857Y-29954819D01*
X67187857Y-29954819D02*
X67283095Y-30002438D01*
X67283095Y-30002438D02*
X67330714Y-30050057D01*
X67330714Y-30050057D02*
X67378333Y-30145295D01*
X67378333Y-30145295D02*
X67378333Y-30288152D01*
X67378333Y-30288152D02*
X67330714Y-30383390D01*
X67330714Y-30383390D02*
X67283095Y-30431009D01*
X67283095Y-30431009D02*
X67187857Y-30478628D01*
X67187857Y-30478628D02*
X66806905Y-30478628D01*
X67711667Y-29954819D02*
X68378333Y-29954819D01*
X68378333Y-29954819D02*
X67949762Y-30954819D01*
X48238095Y-22954819D02*
X48238095Y-23764342D01*
X48238095Y-23764342D02*
X48285714Y-23859580D01*
X48285714Y-23859580D02*
X48333333Y-23907200D01*
X48333333Y-23907200D02*
X48428571Y-23954819D01*
X48428571Y-23954819D02*
X48619047Y-23954819D01*
X48619047Y-23954819D02*
X48714285Y-23907200D01*
X48714285Y-23907200D02*
X48761904Y-23859580D01*
X48761904Y-23859580D02*
X48809523Y-23764342D01*
X48809523Y-23764342D02*
X48809523Y-22954819D01*
X49190476Y-22954819D02*
X49809523Y-22954819D01*
X49809523Y-22954819D02*
X49476190Y-23335771D01*
X49476190Y-23335771D02*
X49619047Y-23335771D01*
X49619047Y-23335771D02*
X49714285Y-23383390D01*
X49714285Y-23383390D02*
X49761904Y-23431009D01*
X49761904Y-23431009D02*
X49809523Y-23526247D01*
X49809523Y-23526247D02*
X49809523Y-23764342D01*
X49809523Y-23764342D02*
X49761904Y-23859580D01*
X49761904Y-23859580D02*
X49714285Y-23907200D01*
X49714285Y-23907200D02*
X49619047Y-23954819D01*
X49619047Y-23954819D02*
X49333333Y-23954819D01*
X49333333Y-23954819D02*
X49238095Y-23907200D01*
X49238095Y-23907200D02*
X49190476Y-23859580D01*
X54853095Y-23144819D02*
X54853095Y-23954342D01*
X54853095Y-23954342D02*
X54900714Y-24049580D01*
X54900714Y-24049580D02*
X54948333Y-24097200D01*
X54948333Y-24097200D02*
X55043571Y-24144819D01*
X55043571Y-24144819D02*
X55234047Y-24144819D01*
X55234047Y-24144819D02*
X55329285Y-24097200D01*
X55329285Y-24097200D02*
X55376904Y-24049580D01*
X55376904Y-24049580D02*
X55424523Y-23954342D01*
X55424523Y-23954342D02*
X55424523Y-23144819D01*
X56424523Y-24144819D02*
X55853095Y-24144819D01*
X56138809Y-24144819D02*
X56138809Y-23144819D01*
X56138809Y-23144819D02*
X56043571Y-23287676D01*
X56043571Y-23287676D02*
X55948333Y-23382914D01*
X55948333Y-23382914D02*
X55853095Y-23430533D01*
X43968333Y-18719580D02*
X43920714Y-18767200D01*
X43920714Y-18767200D02*
X43777857Y-18814819D01*
X43777857Y-18814819D02*
X43682619Y-18814819D01*
X43682619Y-18814819D02*
X43539762Y-18767200D01*
X43539762Y-18767200D02*
X43444524Y-18671961D01*
X43444524Y-18671961D02*
X43396905Y-18576723D01*
X43396905Y-18576723D02*
X43349286Y-18386247D01*
X43349286Y-18386247D02*
X43349286Y-18243390D01*
X43349286Y-18243390D02*
X43396905Y-18052914D01*
X43396905Y-18052914D02*
X43444524Y-17957676D01*
X43444524Y-17957676D02*
X43539762Y-17862438D01*
X43539762Y-17862438D02*
X43682619Y-17814819D01*
X43682619Y-17814819D02*
X43777857Y-17814819D01*
X43777857Y-17814819D02*
X43920714Y-17862438D01*
X43920714Y-17862438D02*
X43968333Y-17910057D01*
X44301667Y-17814819D02*
X44968333Y-17814819D01*
X44968333Y-17814819D02*
X44539762Y-18814819D01*
X70238095Y-29954819D02*
X70238095Y-30764342D01*
X70238095Y-30764342D02*
X70285714Y-30859580D01*
X70285714Y-30859580D02*
X70333333Y-30907200D01*
X70333333Y-30907200D02*
X70428571Y-30954819D01*
X70428571Y-30954819D02*
X70619047Y-30954819D01*
X70619047Y-30954819D02*
X70714285Y-30907200D01*
X70714285Y-30907200D02*
X70761904Y-30859580D01*
X70761904Y-30859580D02*
X70809523Y-30764342D01*
X70809523Y-30764342D02*
X70809523Y-29954819D01*
X71238095Y-30050057D02*
X71285714Y-30002438D01*
X71285714Y-30002438D02*
X71380952Y-29954819D01*
X71380952Y-29954819D02*
X71619047Y-29954819D01*
X71619047Y-29954819D02*
X71714285Y-30002438D01*
X71714285Y-30002438D02*
X71761904Y-30050057D01*
X71761904Y-30050057D02*
X71809523Y-30145295D01*
X71809523Y-30145295D02*
X71809523Y-30240533D01*
X71809523Y-30240533D02*
X71761904Y-30383390D01*
X71761904Y-30383390D02*
X71190476Y-30954819D01*
X71190476Y-30954819D02*
X71809523Y-30954819D01*
X43968333Y-26219580D02*
X43920714Y-26267200D01*
X43920714Y-26267200D02*
X43777857Y-26314819D01*
X43777857Y-26314819D02*
X43682619Y-26314819D01*
X43682619Y-26314819D02*
X43539762Y-26267200D01*
X43539762Y-26267200D02*
X43444524Y-26171961D01*
X43444524Y-26171961D02*
X43396905Y-26076723D01*
X43396905Y-26076723D02*
X43349286Y-25886247D01*
X43349286Y-25886247D02*
X43349286Y-25743390D01*
X43349286Y-25743390D02*
X43396905Y-25552914D01*
X43396905Y-25552914D02*
X43444524Y-25457676D01*
X43444524Y-25457676D02*
X43539762Y-25362438D01*
X43539762Y-25362438D02*
X43682619Y-25314819D01*
X43682619Y-25314819D02*
X43777857Y-25314819D01*
X43777857Y-25314819D02*
X43920714Y-25362438D01*
X43920714Y-25362438D02*
X43968333Y-25410057D01*
X44825476Y-25314819D02*
X44635000Y-25314819D01*
X44635000Y-25314819D02*
X44539762Y-25362438D01*
X44539762Y-25362438D02*
X44492143Y-25410057D01*
X44492143Y-25410057D02*
X44396905Y-25552914D01*
X44396905Y-25552914D02*
X44349286Y-25743390D01*
X44349286Y-25743390D02*
X44349286Y-26124342D01*
X44349286Y-26124342D02*
X44396905Y-26219580D01*
X44396905Y-26219580D02*
X44444524Y-26267200D01*
X44444524Y-26267200D02*
X44539762Y-26314819D01*
X44539762Y-26314819D02*
X44730238Y-26314819D01*
X44730238Y-26314819D02*
X44825476Y-26267200D01*
X44825476Y-26267200D02*
X44873095Y-26219580D01*
X44873095Y-26219580D02*
X44920714Y-26124342D01*
X44920714Y-26124342D02*
X44920714Y-25886247D01*
X44920714Y-25886247D02*
X44873095Y-25791009D01*
X44873095Y-25791009D02*
X44825476Y-25743390D01*
X44825476Y-25743390D02*
X44730238Y-25695771D01*
X44730238Y-25695771D02*
X44539762Y-25695771D01*
X44539762Y-25695771D02*
X44444524Y-25743390D01*
X44444524Y-25743390D02*
X44396905Y-25791009D01*
X44396905Y-25791009D02*
X44349286Y-25886247D01*
X46472142Y-25539580D02*
X46424523Y-25587200D01*
X46424523Y-25587200D02*
X46281666Y-25634819D01*
X46281666Y-25634819D02*
X46186428Y-25634819D01*
X46186428Y-25634819D02*
X46043571Y-25587200D01*
X46043571Y-25587200D02*
X45948333Y-25491961D01*
X45948333Y-25491961D02*
X45900714Y-25396723D01*
X45900714Y-25396723D02*
X45853095Y-25206247D01*
X45853095Y-25206247D02*
X45853095Y-25063390D01*
X45853095Y-25063390D02*
X45900714Y-24872914D01*
X45900714Y-24872914D02*
X45948333Y-24777676D01*
X45948333Y-24777676D02*
X46043571Y-24682438D01*
X46043571Y-24682438D02*
X46186428Y-24634819D01*
X46186428Y-24634819D02*
X46281666Y-24634819D01*
X46281666Y-24634819D02*
X46424523Y-24682438D01*
X46424523Y-24682438D02*
X46472142Y-24730057D01*
X47424523Y-25634819D02*
X46853095Y-25634819D01*
X47138809Y-25634819D02*
X47138809Y-24634819D01*
X47138809Y-24634819D02*
X47043571Y-24777676D01*
X47043571Y-24777676D02*
X46948333Y-24872914D01*
X46948333Y-24872914D02*
X46853095Y-24920533D01*
X48043571Y-24634819D02*
X48138809Y-24634819D01*
X48138809Y-24634819D02*
X48234047Y-24682438D01*
X48234047Y-24682438D02*
X48281666Y-24730057D01*
X48281666Y-24730057D02*
X48329285Y-24825295D01*
X48329285Y-24825295D02*
X48376904Y-25015771D01*
X48376904Y-25015771D02*
X48376904Y-25253866D01*
X48376904Y-25253866D02*
X48329285Y-25444342D01*
X48329285Y-25444342D02*
X48281666Y-25539580D01*
X48281666Y-25539580D02*
X48234047Y-25587200D01*
X48234047Y-25587200D02*
X48138809Y-25634819D01*
X48138809Y-25634819D02*
X48043571Y-25634819D01*
X48043571Y-25634819D02*
X47948333Y-25587200D01*
X47948333Y-25587200D02*
X47900714Y-25539580D01*
X47900714Y-25539580D02*
X47853095Y-25444342D01*
X47853095Y-25444342D02*
X47805476Y-25253866D01*
X47805476Y-25253866D02*
X47805476Y-25015771D01*
X47805476Y-25015771D02*
X47853095Y-24825295D01*
X47853095Y-24825295D02*
X47900714Y-24730057D01*
X47900714Y-24730057D02*
X47948333Y-24682438D01*
X47948333Y-24682438D02*
X48043571Y-24634819D01*
X43948333Y-21219580D02*
X43900714Y-21267200D01*
X43900714Y-21267200D02*
X43757857Y-21314819D01*
X43757857Y-21314819D02*
X43662619Y-21314819D01*
X43662619Y-21314819D02*
X43519762Y-21267200D01*
X43519762Y-21267200D02*
X43424524Y-21171961D01*
X43424524Y-21171961D02*
X43376905Y-21076723D01*
X43376905Y-21076723D02*
X43329286Y-20886247D01*
X43329286Y-20886247D02*
X43329286Y-20743390D01*
X43329286Y-20743390D02*
X43376905Y-20552914D01*
X43376905Y-20552914D02*
X43424524Y-20457676D01*
X43424524Y-20457676D02*
X43519762Y-20362438D01*
X43519762Y-20362438D02*
X43662619Y-20314819D01*
X43662619Y-20314819D02*
X43757857Y-20314819D01*
X43757857Y-20314819D02*
X43900714Y-20362438D01*
X43900714Y-20362438D02*
X43948333Y-20410057D01*
X44519762Y-20743390D02*
X44424524Y-20695771D01*
X44424524Y-20695771D02*
X44376905Y-20648152D01*
X44376905Y-20648152D02*
X44329286Y-20552914D01*
X44329286Y-20552914D02*
X44329286Y-20505295D01*
X44329286Y-20505295D02*
X44376905Y-20410057D01*
X44376905Y-20410057D02*
X44424524Y-20362438D01*
X44424524Y-20362438D02*
X44519762Y-20314819D01*
X44519762Y-20314819D02*
X44710238Y-20314819D01*
X44710238Y-20314819D02*
X44805476Y-20362438D01*
X44805476Y-20362438D02*
X44853095Y-20410057D01*
X44853095Y-20410057D02*
X44900714Y-20505295D01*
X44900714Y-20505295D02*
X44900714Y-20552914D01*
X44900714Y-20552914D02*
X44853095Y-20648152D01*
X44853095Y-20648152D02*
X44805476Y-20695771D01*
X44805476Y-20695771D02*
X44710238Y-20743390D01*
X44710238Y-20743390D02*
X44519762Y-20743390D01*
X44519762Y-20743390D02*
X44424524Y-20791009D01*
X44424524Y-20791009D02*
X44376905Y-20838628D01*
X44376905Y-20838628D02*
X44329286Y-20933866D01*
X44329286Y-20933866D02*
X44329286Y-21124342D01*
X44329286Y-21124342D02*
X44376905Y-21219580D01*
X44376905Y-21219580D02*
X44424524Y-21267200D01*
X44424524Y-21267200D02*
X44519762Y-21314819D01*
X44519762Y-21314819D02*
X44710238Y-21314819D01*
X44710238Y-21314819D02*
X44805476Y-21267200D01*
X44805476Y-21267200D02*
X44853095Y-21219580D01*
X44853095Y-21219580D02*
X44900714Y-21124342D01*
X44900714Y-21124342D02*
X44900714Y-20933866D01*
X44900714Y-20933866D02*
X44853095Y-20838628D01*
X44853095Y-20838628D02*
X44805476Y-20791009D01*
X44805476Y-20791009D02*
X44710238Y-20743390D01*
D12*
%TO.C,D2*%
X62380000Y-30535000D02*
X62380000Y-32820000D01*
X63850000Y-30535000D02*
X62380000Y-30535000D01*
X63850000Y-32820000D02*
X63850000Y-30535000D01*
%TO.C,R3*%
X57352258Y-19997500D02*
X56877742Y-19997500D01*
X57352258Y-21042500D02*
X56877742Y-21042500D01*
%TO.C,C2*%
X43412164Y-35640000D02*
X43627836Y-35640000D01*
X43412164Y-36360000D02*
X43627836Y-36360000D01*
%TO.C,R2*%
X69092500Y-21257258D02*
X69092500Y-20782742D01*
X70137500Y-21257258D02*
X70137500Y-20782742D01*
%TO.C,C5*%
X48755000Y-27127836D02*
X48755000Y-26912164D01*
X49475000Y-27127836D02*
X49475000Y-26912164D01*
%TO.C,C4*%
X60755000Y-22384836D02*
X60755000Y-22169164D01*
X61475000Y-22384836D02*
X61475000Y-22169164D01*
%TO.C,R5*%
X43592500Y-29107742D02*
X43592500Y-29582258D01*
X44637500Y-29107742D02*
X44637500Y-29582258D01*
%TO.C,C9*%
X44027164Y-24160000D02*
X44242836Y-24160000D01*
X44027164Y-24880000D02*
X44242836Y-24880000D01*
%TO.C,Y1*%
X62905000Y-18960000D02*
X62905000Y-23080000D01*
X66325000Y-18960000D02*
X62905000Y-18960000D01*
%TO.C,C3*%
X60755000Y-19932164D02*
X60755000Y-20147836D01*
X61475000Y-19932164D02*
X61475000Y-20147836D01*
%TO.C,C11*%
X44027164Y-16660000D02*
X44242836Y-16660000D01*
X44027164Y-17380000D02*
X44242836Y-17380000D01*
%TO.C,R4*%
X54592500Y-32282742D02*
X54592500Y-32757258D01*
X55637500Y-32282742D02*
X55637500Y-32757258D01*
%TO.C,R1*%
X61552742Y-26497500D02*
X62027258Y-26497500D01*
X61552742Y-27542500D02*
X62027258Y-27542500D01*
%TO.C,D1*%
X46092500Y-28720000D02*
X46092500Y-31005000D01*
X46092500Y-31005000D02*
X47562500Y-31005000D01*
X47562500Y-31005000D02*
X47562500Y-28720000D01*
%TO.C,R6*%
X68092500Y-32257258D02*
X68092500Y-31782742D01*
X69137500Y-32257258D02*
X69137500Y-31782742D01*
%TO.C,C1*%
X50255000Y-24627836D02*
X50255000Y-24412164D01*
X50975000Y-24627836D02*
X50975000Y-24412164D01*
%TO.C,R7*%
X65592500Y-31782742D02*
X65592500Y-32257258D01*
X66637500Y-31782742D02*
X66637500Y-32257258D01*
%TO.C,U3*%
X48265000Y-15610000D02*
X52025000Y-15610000D01*
X48265000Y-22430000D02*
X52025000Y-22430000D01*
X52025000Y-15610000D02*
X52025000Y-16870000D01*
X52025000Y-22430000D02*
X52025000Y-21170000D01*
X46985000Y-15710000D02*
X46745000Y-15380000D01*
X47225000Y-15380000D01*
X46985000Y-15710000D01*
G36*
X46985000Y-15710000D02*
G01*
X46745000Y-15380000D01*
X47225000Y-15380000D01*
X46985000Y-15710000D01*
G37*
%TO.C,U1*%
X53005000Y-24910000D02*
X53480000Y-24910000D01*
X53005000Y-25385000D02*
X53005000Y-24910000D01*
X53005000Y-30130000D02*
X53005000Y-29655000D01*
X53480000Y-30130000D02*
X53005000Y-30130000D01*
X57750000Y-24910000D02*
X58225000Y-24910000D01*
X58225000Y-24910000D02*
X58225000Y-25385000D01*
X58225000Y-29655000D02*
X58225000Y-30130000D01*
X58225000Y-30130000D02*
X57750000Y-30130000D01*
X52475000Y-25770000D02*
X52145000Y-26010000D01*
X52145000Y-25530000D01*
X52475000Y-25770000D01*
G36*
X52475000Y-25770000D02*
G01*
X52145000Y-26010000D01*
X52145000Y-25530000D01*
X52475000Y-25770000D01*
G37*
%TO.C,C7*%
X44027164Y-19160000D02*
X44242836Y-19160000D01*
X44027164Y-19880000D02*
X44242836Y-19880000D01*
%TO.C,U2*%
X66490499Y-24460000D02*
X70610499Y-24460000D01*
X66490499Y-24555000D02*
X66490499Y-24460000D01*
X66490499Y-29580000D02*
X66490499Y-29485000D01*
X70610499Y-24460000D02*
X70610499Y-24555000D01*
X70610499Y-29485000D02*
X70610499Y-29580000D01*
X70610499Y-29580000D02*
X66490499Y-29580000D01*
X71390499Y-29820000D02*
X70910499Y-29820000D01*
X71150499Y-29490000D01*
X71390499Y-29820000D01*
G36*
X71390499Y-29820000D02*
G01*
X70910499Y-29820000D01*
X71150499Y-29490000D01*
X71390499Y-29820000D01*
G37*
%TO.C,C6*%
X44027164Y-26660000D02*
X44242836Y-26660000D01*
X44027164Y-27380000D02*
X44242836Y-27380000D01*
%TO.C,C10*%
X47222836Y-23660000D02*
X47007164Y-23660000D01*
X47222836Y-24380000D02*
X47007164Y-24380000D01*
%TO.C,C8*%
X44007164Y-21660000D02*
X44222836Y-21660000D01*
X44007164Y-22380000D02*
X44222836Y-22380000D01*
%TD*%
M02*
