%TF.GenerationSoftware,KiCad,Pcbnew,9.0.7*%
%TF.CreationDate,2026-04-03T17:51:38+05:00*%
%TF.ProjectId,Esp 01,45737020-3031-42e6-9b69-6361645f7063,rev?*%
%TF.SameCoordinates,Original*%
%TF.FileFunction,Legend,Bot*%
%TF.FilePolarity,Positive*%
%FSLAX46Y46*%
G04 Gerber Fmt 4.6, Leading zero omitted, Abs format (unit mm)*
G04 Created by KiCad (PCBNEW 9.0.7) date 2026-04-03 17:51:38*
%MOMM*%
%LPD*%
G01*
G04 APERTURE LIST*
%ADD10C,0.100000*%
%ADD11C,0.150000*%
%ADD12C,0.120000*%
G04 APERTURE END LIST*
D10*
X44196115Y-35262475D02*
X44196115Y-34262475D01*
X44196115Y-34262475D02*
X43958020Y-34262475D01*
X43958020Y-34262475D02*
X43815163Y-34310094D01*
X43815163Y-34310094D02*
X43719925Y-34405332D01*
X43719925Y-34405332D02*
X43672306Y-34500570D01*
X43672306Y-34500570D02*
X43624687Y-34691046D01*
X43624687Y-34691046D02*
X43624687Y-34833903D01*
X43624687Y-34833903D02*
X43672306Y-35024379D01*
X43672306Y-35024379D02*
X43719925Y-35119617D01*
X43719925Y-35119617D02*
X43815163Y-35214856D01*
X43815163Y-35214856D02*
X43958020Y-35262475D01*
X43958020Y-35262475D02*
X44196115Y-35262475D01*
X42815163Y-35214856D02*
X42910401Y-35262475D01*
X42910401Y-35262475D02*
X43100877Y-35262475D01*
X43100877Y-35262475D02*
X43196115Y-35214856D01*
X43196115Y-35214856D02*
X43243734Y-35119617D01*
X43243734Y-35119617D02*
X43243734Y-34738665D01*
X43243734Y-34738665D02*
X43196115Y-34643427D01*
X43196115Y-34643427D02*
X43100877Y-34595808D01*
X43100877Y-34595808D02*
X42910401Y-34595808D01*
X42910401Y-34595808D02*
X42815163Y-34643427D01*
X42815163Y-34643427D02*
X42767544Y-34738665D01*
X42767544Y-34738665D02*
X42767544Y-34833903D01*
X42767544Y-34833903D02*
X43243734Y-34929141D01*
X42386591Y-35214856D02*
X42291353Y-35262475D01*
X42291353Y-35262475D02*
X42100877Y-35262475D01*
X42100877Y-35262475D02*
X42005639Y-35214856D01*
X42005639Y-35214856D02*
X41958020Y-35119617D01*
X41958020Y-35119617D02*
X41958020Y-35071998D01*
X41958020Y-35071998D02*
X42005639Y-34976760D01*
X42005639Y-34976760D02*
X42100877Y-34929141D01*
X42100877Y-34929141D02*
X42243734Y-34929141D01*
X42243734Y-34929141D02*
X42338972Y-34881522D01*
X42338972Y-34881522D02*
X42386591Y-34786284D01*
X42386591Y-34786284D02*
X42386591Y-34738665D01*
X42386591Y-34738665D02*
X42338972Y-34643427D01*
X42338972Y-34643427D02*
X42243734Y-34595808D01*
X42243734Y-34595808D02*
X42100877Y-34595808D01*
X42100877Y-34595808D02*
X42005639Y-34643427D01*
X41529448Y-35262475D02*
X41529448Y-34595808D01*
X41529448Y-34262475D02*
X41577067Y-34310094D01*
X41577067Y-34310094D02*
X41529448Y-34357713D01*
X41529448Y-34357713D02*
X41481829Y-34310094D01*
X41481829Y-34310094D02*
X41529448Y-34262475D01*
X41529448Y-34262475D02*
X41529448Y-34357713D01*
X40624687Y-34595808D02*
X40624687Y-35405332D01*
X40624687Y-35405332D02*
X40672306Y-35500570D01*
X40672306Y-35500570D02*
X40719925Y-35548189D01*
X40719925Y-35548189D02*
X40815163Y-35595808D01*
X40815163Y-35595808D02*
X40958020Y-35595808D01*
X40958020Y-35595808D02*
X41053258Y-35548189D01*
X40624687Y-35214856D02*
X40719925Y-35262475D01*
X40719925Y-35262475D02*
X40910401Y-35262475D01*
X40910401Y-35262475D02*
X41005639Y-35214856D01*
X41005639Y-35214856D02*
X41053258Y-35167236D01*
X41053258Y-35167236D02*
X41100877Y-35071998D01*
X41100877Y-35071998D02*
X41100877Y-34786284D01*
X41100877Y-34786284D02*
X41053258Y-34691046D01*
X41053258Y-34691046D02*
X41005639Y-34643427D01*
X41005639Y-34643427D02*
X40910401Y-34595808D01*
X40910401Y-34595808D02*
X40719925Y-34595808D01*
X40719925Y-34595808D02*
X40624687Y-34643427D01*
X40148496Y-34595808D02*
X40148496Y-35262475D01*
X40148496Y-34691046D02*
X40100877Y-34643427D01*
X40100877Y-34643427D02*
X40005639Y-34595808D01*
X40005639Y-34595808D02*
X39862782Y-34595808D01*
X39862782Y-34595808D02*
X39767544Y-34643427D01*
X39767544Y-34643427D02*
X39719925Y-34738665D01*
X39719925Y-34738665D02*
X39719925Y-35262475D01*
X38862782Y-35214856D02*
X38958020Y-35262475D01*
X38958020Y-35262475D02*
X39148496Y-35262475D01*
X39148496Y-35262475D02*
X39243734Y-35214856D01*
X39243734Y-35214856D02*
X39291353Y-35119617D01*
X39291353Y-35119617D02*
X39291353Y-34738665D01*
X39291353Y-34738665D02*
X39243734Y-34643427D01*
X39243734Y-34643427D02*
X39148496Y-34595808D01*
X39148496Y-34595808D02*
X38958020Y-34595808D01*
X38958020Y-34595808D02*
X38862782Y-34643427D01*
X38862782Y-34643427D02*
X38815163Y-34738665D01*
X38815163Y-34738665D02*
X38815163Y-34833903D01*
X38815163Y-34833903D02*
X39291353Y-34929141D01*
X37958020Y-35262475D02*
X37958020Y-34262475D01*
X37958020Y-35214856D02*
X38053258Y-35262475D01*
X38053258Y-35262475D02*
X38243734Y-35262475D01*
X38243734Y-35262475D02*
X38338972Y-35214856D01*
X38338972Y-35214856D02*
X38386591Y-35167236D01*
X38386591Y-35167236D02*
X38434210Y-35071998D01*
X38434210Y-35071998D02*
X38434210Y-34786284D01*
X38434210Y-34786284D02*
X38386591Y-34691046D01*
X38386591Y-34691046D02*
X38338972Y-34643427D01*
X38338972Y-34643427D02*
X38243734Y-34595808D01*
X38243734Y-34595808D02*
X38053258Y-34595808D01*
X38053258Y-34595808D02*
X37958020Y-34643427D01*
X36719924Y-35262475D02*
X36719924Y-34262475D01*
X36719924Y-34643427D02*
X36624686Y-34595808D01*
X36624686Y-34595808D02*
X36434210Y-34595808D01*
X36434210Y-34595808D02*
X36338972Y-34643427D01*
X36338972Y-34643427D02*
X36291353Y-34691046D01*
X36291353Y-34691046D02*
X36243734Y-34786284D01*
X36243734Y-34786284D02*
X36243734Y-35071998D01*
X36243734Y-35071998D02*
X36291353Y-35167236D01*
X36291353Y-35167236D02*
X36338972Y-35214856D01*
X36338972Y-35214856D02*
X36434210Y-35262475D01*
X36434210Y-35262475D02*
X36624686Y-35262475D01*
X36624686Y-35262475D02*
X36719924Y-35214856D01*
X35910400Y-34595808D02*
X35672305Y-35262475D01*
X35434210Y-34595808D02*
X35672305Y-35262475D01*
X35672305Y-35262475D02*
X35767543Y-35500570D01*
X35767543Y-35500570D02*
X35815162Y-35548189D01*
X35815162Y-35548189D02*
X35910400Y-35595808D01*
X44196115Y-36348609D02*
X43862782Y-36348609D01*
X43719925Y-36872419D02*
X44196115Y-36872419D01*
X44196115Y-36872419D02*
X44196115Y-35872419D01*
X44196115Y-35872419D02*
X43719925Y-35872419D01*
X43291353Y-36205752D02*
X43291353Y-36872419D01*
X43291353Y-36300990D02*
X43243734Y-36253371D01*
X43243734Y-36253371D02*
X43148496Y-36205752D01*
X43148496Y-36205752D02*
X43005639Y-36205752D01*
X43005639Y-36205752D02*
X42910401Y-36253371D01*
X42910401Y-36253371D02*
X42862782Y-36348609D01*
X42862782Y-36348609D02*
X42862782Y-36872419D01*
X41958020Y-36205752D02*
X41958020Y-37015276D01*
X41958020Y-37015276D02*
X42005639Y-37110514D01*
X42005639Y-37110514D02*
X42053258Y-37158133D01*
X42053258Y-37158133D02*
X42148496Y-37205752D01*
X42148496Y-37205752D02*
X42291353Y-37205752D01*
X42291353Y-37205752D02*
X42386591Y-37158133D01*
X41958020Y-36824800D02*
X42053258Y-36872419D01*
X42053258Y-36872419D02*
X42243734Y-36872419D01*
X42243734Y-36872419D02*
X42338972Y-36824800D01*
X42338972Y-36824800D02*
X42386591Y-36777180D01*
X42386591Y-36777180D02*
X42434210Y-36681942D01*
X42434210Y-36681942D02*
X42434210Y-36396228D01*
X42434210Y-36396228D02*
X42386591Y-36300990D01*
X42386591Y-36300990D02*
X42338972Y-36253371D01*
X42338972Y-36253371D02*
X42243734Y-36205752D01*
X42243734Y-36205752D02*
X42053258Y-36205752D01*
X42053258Y-36205752D02*
X41958020Y-36253371D01*
X41481829Y-36872419D02*
X41481829Y-36205752D01*
X41481829Y-36396228D02*
X41434210Y-36300990D01*
X41434210Y-36300990D02*
X41386591Y-36253371D01*
X41386591Y-36253371D02*
X41291353Y-36205752D01*
X41291353Y-36205752D02*
X41196115Y-36205752D01*
X40862781Y-36777180D02*
X40815162Y-36824800D01*
X40815162Y-36824800D02*
X40862781Y-36872419D01*
X40862781Y-36872419D02*
X40910400Y-36824800D01*
X40910400Y-36824800D02*
X40862781Y-36777180D01*
X40862781Y-36777180D02*
X40862781Y-36872419D01*
X39672305Y-36586704D02*
X39196115Y-36586704D01*
X39767543Y-36872419D02*
X39434210Y-35872419D01*
X39434210Y-35872419D02*
X39100877Y-36872419D01*
X38338972Y-36872419D02*
X38338972Y-36348609D01*
X38338972Y-36348609D02*
X38386591Y-36253371D01*
X38386591Y-36253371D02*
X38481829Y-36205752D01*
X38481829Y-36205752D02*
X38672305Y-36205752D01*
X38672305Y-36205752D02*
X38767543Y-36253371D01*
X38338972Y-36824800D02*
X38434210Y-36872419D01*
X38434210Y-36872419D02*
X38672305Y-36872419D01*
X38672305Y-36872419D02*
X38767543Y-36824800D01*
X38767543Y-36824800D02*
X38815162Y-36729561D01*
X38815162Y-36729561D02*
X38815162Y-36634323D01*
X38815162Y-36634323D02*
X38767543Y-36539085D01*
X38767543Y-36539085D02*
X38672305Y-36491466D01*
X38672305Y-36491466D02*
X38434210Y-36491466D01*
X38434210Y-36491466D02*
X38338972Y-36443847D01*
X37958019Y-36205752D02*
X37434210Y-36205752D01*
X37434210Y-36205752D02*
X37958019Y-36872419D01*
X37958019Y-36872419D02*
X37434210Y-36872419D01*
X36624686Y-36872419D02*
X36624686Y-36348609D01*
X36624686Y-36348609D02*
X36672305Y-36253371D01*
X36672305Y-36253371D02*
X36767543Y-36205752D01*
X36767543Y-36205752D02*
X36958019Y-36205752D01*
X36958019Y-36205752D02*
X37053257Y-36253371D01*
X36624686Y-36824800D02*
X36719924Y-36872419D01*
X36719924Y-36872419D02*
X36958019Y-36872419D01*
X36958019Y-36872419D02*
X37053257Y-36824800D01*
X37053257Y-36824800D02*
X37100876Y-36729561D01*
X37100876Y-36729561D02*
X37100876Y-36634323D01*
X37100876Y-36634323D02*
X37053257Y-36539085D01*
X37053257Y-36539085D02*
X36958019Y-36491466D01*
X36958019Y-36491466D02*
X36719924Y-36491466D01*
X36719924Y-36491466D02*
X36624686Y-36443847D01*
X36148495Y-36205752D02*
X36148495Y-36872419D01*
X36148495Y-36300990D02*
X36100876Y-36253371D01*
X36100876Y-36253371D02*
X36005638Y-36205752D01*
X36005638Y-36205752D02*
X35862781Y-36205752D01*
X35862781Y-36205752D02*
X35767543Y-36253371D01*
X35767543Y-36253371D02*
X35719924Y-36348609D01*
X35719924Y-36348609D02*
X35719924Y-36872419D01*
X34529447Y-36586704D02*
X34053257Y-36586704D01*
X34624685Y-36872419D02*
X34291352Y-35872419D01*
X34291352Y-35872419D02*
X33958019Y-36872419D01*
X33481828Y-36872419D02*
X33577066Y-36824800D01*
X33577066Y-36824800D02*
X33624685Y-36729561D01*
X33624685Y-36729561D02*
X33624685Y-35872419D01*
X33100875Y-36872419D02*
X33100875Y-36205752D01*
X33100875Y-35872419D02*
X33148494Y-35920038D01*
X33148494Y-35920038D02*
X33100875Y-35967657D01*
X33100875Y-35967657D02*
X33053256Y-35920038D01*
X33053256Y-35920038D02*
X33100875Y-35872419D01*
X33100875Y-35872419D02*
X33100875Y-35967657D01*
D11*
X55489819Y-16686666D02*
X56204104Y-16686666D01*
X56204104Y-16686666D02*
X56346961Y-16639047D01*
X56346961Y-16639047D02*
X56442200Y-16543809D01*
X56442200Y-16543809D02*
X56489819Y-16400952D01*
X56489819Y-16400952D02*
X56489819Y-16305714D01*
X55585057Y-17115238D02*
X55537438Y-17162857D01*
X55537438Y-17162857D02*
X55489819Y-17258095D01*
X55489819Y-17258095D02*
X55489819Y-17496190D01*
X55489819Y-17496190D02*
X55537438Y-17591428D01*
X55537438Y-17591428D02*
X55585057Y-17639047D01*
X55585057Y-17639047D02*
X55680295Y-17686666D01*
X55680295Y-17686666D02*
X55775533Y-17686666D01*
X55775533Y-17686666D02*
X55918390Y-17639047D01*
X55918390Y-17639047D02*
X56489819Y-17067619D01*
X56489819Y-17067619D02*
X56489819Y-17686666D01*
X55529819Y-35186666D02*
X56244104Y-35186666D01*
X56244104Y-35186666D02*
X56386961Y-35139047D01*
X56386961Y-35139047D02*
X56482200Y-35043809D01*
X56482200Y-35043809D02*
X56529819Y-34900952D01*
X56529819Y-34900952D02*
X56529819Y-34805714D01*
X56529819Y-36186666D02*
X56529819Y-35615238D01*
X56529819Y-35900952D02*
X55529819Y-35900952D01*
X55529819Y-35900952D02*
X55672676Y-35805714D01*
X55672676Y-35805714D02*
X55767914Y-35710476D01*
X55767914Y-35710476D02*
X55815533Y-35615238D01*
D12*
%TO.C,J2*%
X57035000Y-15640000D02*
X57035000Y-17020000D01*
X58415000Y-15640000D02*
X57035000Y-15640000D01*
X59685000Y-15640000D02*
X59685000Y-18400000D01*
X59685000Y-15640000D02*
X72495000Y-15640000D01*
X59685000Y-18400000D02*
X72495000Y-18400000D01*
X72495000Y-15640000D02*
X72495000Y-18400000D01*
%TO.C,J1*%
X57075000Y-34140000D02*
X57075000Y-35520000D01*
X58455000Y-34140000D02*
X57075000Y-34140000D01*
X59725000Y-34140000D02*
X59725000Y-36900000D01*
X59725000Y-34140000D02*
X72535000Y-34140000D01*
X59725000Y-36900000D02*
X72535000Y-36900000D01*
X72535000Y-34140000D02*
X72535000Y-36900000D01*
%TD*%
M02*
